<?xml version="1.0" standalone="no"?>
<!DOCTYPE svg PUBLIC "-//W3C//DTD SVG 20010904//EN"
 "http://www.w3.org/TR/2001/REC-SVG-20010904/DTD/svg10.dtd">
<svg version="1.0" xmlns="http://www.w3.org/2000/svg"
 width="1110.000000pt" height="1902.000000pt" viewBox="0 0 1110.000000 1902.000000"
 preserveAspectRatio="xMidYMid meet">

<g transform="translate(0.000000,1902.000000) scale(0.100000,-0.100000)"
fill="#000000" stroke="none">
<path d="M4118 18998 c-21 -11 -38 -24 -38 -28 0 -5 -21 -6 -48 -4 -37 4 -52
1 -70 -14 -12 -11 -22 -24 -22 -30 0 -6 -9 -16 -20 -22 -11 -6 -20 -7 -20 -3
0 4 -7 -2 -15 -13 -8 -11 -15 -14 -15 -6 0 17 -60 -38 -60 -56 0 -11 -3 -12
-14 -3 -9 8 -16 8 -20 2 -4 -5 -2 -12 4 -16 5 -3 10 -14 9 -23 0 -12 -3 -11
-9 6 -12 29 -33 28 -50 -4 -9 -17 -20 -24 -32 -21 -13 4 -18 -1 -18 -18 0 -13
-7 -25 -15 -29 -8 -3 -15 -1 -15 4 0 17 -22 11 -41 -12 -11 -11 -19 -27 -19
-34 0 -7 -8 -15 -17 -17 -17 -4 -17 -5 0 -6 9 0 17 -5 17 -11 0 -6 -10 -5 -25
2 -14 6 -25 19 -25 30 0 10 -4 18 -8 18 -13 0 -52 -36 -52 -48 0 -6 -9 -14
-21 -17 -11 -4 -24 -18 -29 -31 -5 -13 -17 -24 -25 -24 -21 0 -85 -70 -85 -92
0 -19 -35 -42 -50 -33 -6 4 -18 -7 -28 -24 -11 -20 -23 -29 -33 -26 -17 6 -59
-52 -59 -81 0 -8 -5 -14 -11 -14 -6 0 -9 -6 -6 -14 3 -7 1 -18 -4 -23 -5 -5
-12 -20 -14 -33 -2 -13 -9 -27 -15 -30 -6 -4 -10 -11 -9 -16 1 -5 0 -13 -2
-19 -8 -30 -3 -145 7 -145 12 0 23 -48 16 -68 -2 -7 -10 -12 -17 -12 -9 0 -15
-15 -17 -42 -2 -30 -7 -42 -17 -40 -11 2 -12 -6 -8 -33 3 -20 1 -44 -5 -54 -7
-12 -6 -30 6 -65 9 -27 14 -51 11 -54 -9 -9 -17 6 -17 33 0 14 -5 25 -11 25
-6 0 -7 -18 -3 -47 6 -49 49 -123 71 -123 7 0 10 -9 8 -23 -4 -19 4 -31 39
-57 23 -18 48 -39 53 -45 6 -6 20 -17 31 -23 15 -8 20 -18 17 -35 -3 -14 -1
-27 5 -31 5 -3 6 -26 1 -56 -4 -28 -10 -86 -13 -130 -2 -43 -7 -84 -11 -90 -3
-6 -1 -26 5 -46 18 -53 20 -86 5 -74 -9 8 -12 4 -9 -17 1 -15 -2 -33 -8 -40
-8 -10 -6 -13 6 -13 19 0 20 -15 5 -59 -8 -23 -8 -35 0 -45 8 -10 9 -16 1 -21
-7 -4 -4 -16 7 -36 11 -19 14 -32 8 -37 -15 -11 -18 -112 -4 -129 10 -12 10
-16 -2 -24 -10 -6 -11 -9 -1 -9 7 0 10 -5 7 -10 -4 -6 -1 -17 5 -25 7 -8 11
-31 10 -52 -4 -63 -1 -95 10 -88 13 8 13 -21 0 -44 -6 -13 -5 -24 5 -37 8 -11
15 -36 15 -56 0 -21 4 -38 8 -38 5 0 9 -7 9 -16 0 -9 -7 -14 -17 -11 -20 5
-20 -26 1 -51 8 -9 22 -30 32 -45 10 -16 27 -37 37 -47 24 -24 70 -106 70
-125 0 -8 4 -15 8 -15 4 0 8 -21 8 -47 -1 -45 -3 -48 -28 -51 -16 -2 -28 -7
-28 -12 0 -5 14 -7 30 -3 19 3 30 1 30 -6 0 -10 -14 -15 -34 -12 -4 1 -5 -15
-1 -36 4 -21 7 -50 6 -65 -1 -16 3 -28 9 -28 5 0 10 4 10 8 0 5 7 9 15 9 8 0
15 -4 15 -9 0 -4 -5 -8 -11 -8 -8 0 -8 -4 -1 -13 10 -11 22 -72 37 -182 3 -22
7 -49 10 -60 3 -11 7 -36 10 -55 2 -19 8 -46 12 -60 7 -27 8 -33 18 -100 3
-25 9 -52 12 -60 8 -19 8 -20 17 -51 4 -14 13 -26 20 -26 16 0 13 55 -4 87 -6
12 -8 29 -4 38 11 27 12 56 2 75 -5 10 -11 32 -13 50 -9 73 -18 110 -31 135
-8 15 -14 38 -14 52 0 14 -7 48 -16 75 -8 28 -17 65 -20 83 -2 18 -9 42 -14
53 -6 11 -8 25 -4 31 10 15 12 58 18 357 3 140 8 256 11 259 10 10 5 23 -6 16
-8 -4 -9 3 -4 25 4 17 3 31 -2 31 -4 0 -8 27 -8 59 0 33 3 57 8 54 9 -5 8 24
-2 95 -4 29 -4 55 1 58 5 3 4 12 -2 19 -7 9 -6 16 5 25 8 7 15 17 15 22 0 27
33 75 60 86 16 8 30 21 30 30 -1 15 -2 15 -13 2 -7 -8 -22 -16 -35 -17 -20 -3
-17 3 20 39 25 24 37 43 30 46 -19 6 -14 18 9 19 29 3 33 8 32 48 -1 19 3 35
8 35 5 0 9 12 9 26 0 18 -4 24 -13 21 -7 -3 -19 4 -25 14 -8 12 -8 19 -2 19 5
0 10 -4 10 -10 0 -17 25 -11 37 9 11 18 9 20 -25 23 -26 2 -38 8 -40 21 -2 10
3 17 12 17 11 0 15 9 13 30 -2 24 -6 30 -19 26 -10 -2 -18 0 -18 5 0 5 8 9 19
9 18 0 28 18 38 70 2 13 8 29 13 35 10 12 2 28 -22 41 -16 9 -15 12 8 39 13
16 23 34 20 41 -3 7 2 18 11 26 24 19 73 100 67 109 -3 5 1 7 8 4 7 -3 30 11
51 31 28 27 44 35 66 32 16 -1 35 2 42 9 21 16 59 26 59 15 0 -6 -6 -12 -12
-15 -7 -2 -9 -8 -5 -13 4 -5 11 -4 15 1 4 6 27 11 51 12 46 3 71 16 71 39 0 8
10 14 25 14 13 0 35 5 49 12 23 10 29 8 47 -13 14 -16 22 -20 27 -12 4 7 24
23 44 37 29 19 39 22 47 12 6 -7 8 -16 4 -19 -15 -16 14 -5 37 13 14 11 18 19
10 18 -8 -2 -18 -7 -22 -13 -5 -6 -8 -3 -8 6 0 18 28 29 73 29 29 0 81 42 69
56 -4 4 -1 4 6 0 7 -5 11 -14 9 -20 -7 -19 62 -19 80 -1 8 8 23 15 34 15 10 0
19 7 19 15 0 20 10 19 25 -1 10 -14 15 -14 34 -4 13 6 25 9 28 6 3 -2 14 4 26
14 15 14 24 17 33 9 7 -6 11 -16 8 -22 -5 -14 44 -39 58 -31 5 3 17 -4 28 -16
10 -12 21 -17 24 -11 4 5 2 12 -4 16 -5 3 -10 12 -10 18 0 7 4 6 10 -3 8 -13
11 -13 19 -1 8 12 10 12 14 0 2 -8 3 -2 1 14 -4 33 2 34 28 5 11 -13 17 -18
14 -11 -4 6 -2 14 4 18 17 10 11 -17 -7 -38 -17 -19 -17 -19 3 -13 16 5 23 -1
38 -34 16 -36 46 -56 46 -30 0 6 5 10 11 10 5 0 7 -4 4 -10 -3 -5 -3 -10 2
-10 4 0 24 -14 43 -30 36 -30 59 -38 61 -20 1 6 2 16 3 23 0 6 7 12 14 11 42
-3 44 -5 39 -24 -3 -13 1 -24 13 -30 14 -8 19 -5 23 12 4 12 3 26 -1 32 -16
27 -11 38 16 31 26 -6 26 -6 9 13 -17 19 -17 20 3 25 19 5 29 -8 11 -15 -5 -1
-3 -12 5 -22 12 -17 14 -17 14 -3 0 10 5 14 15 11 9 -4 18 3 24 18 12 31 37
53 46 38 3 -5 4 -14 1 -19 -3 -5 1 -22 9 -37 14 -28 15 -28 15 -5 0 22 1 22
23 -10 27 -40 55 -49 74 -23 12 17 13 16 13 -4 0 -24 15 -27 52 -13 16 6 29 5
41 -4 10 -7 35 -11 60 -9 23 2 36 0 30 -4 -9 -6 -7 -12 7 -25 17 -14 20 -14
20 -2 0 20 29 19 36 0 4 -8 14 -15 24 -15 10 0 20 -5 22 -11 5 -15 82 -41 86
-29 2 6 11 10 19 10 12 0 13 -3 4 -14 -9 -11 -6 -14 16 -14 16 0 31 5 35 12 5
7 8 5 8 -6 0 -10 4 -18 10 -18 5 0 7 8 4 18 -4 12 0 10 12 -5 10 -14 27 -23
43 -23 15 0 32 -5 39 -12 9 -9 15 -9 24 0 9 9 7 12 -12 12 -18 0 -21 3 -12 12
6 6 21 12 33 13 15 1 19 -3 16 -16 -6 -22 11 -30 36 -17 12 6 17 5 17 -7 0 -8
9 -23 19 -32 11 -9 17 -21 14 -26 -3 -6 -1 -7 5 -3 6 3 13 2 16 -3 4 -5 2 -12
-4 -16 -11 -7 5 -28 30 -38 11 -4 10 -6 -4 -6 -16 -1 -17 -4 -8 -13 7 -7 12
-20 12 -29 0 -13 6 -16 23 -12 l22 5 -23 -17 c-18 -13 -20 -20 -12 -30 7 -8 9
-23 5 -34 -3 -10 -1 -22 5 -26 7 -4 5 -12 -5 -21 -18 -19 -19 -29 -2 -46 16
-17 21 -58 8 -58 -6 0 -11 -7 -11 -15 0 -8 4 -15 9 -15 12 0 21 -64 10 -71 -5
-3 0 -15 12 -28 11 -12 18 -29 15 -37 -9 -23 14 -39 52 -37 25 1 32 -3 32 -18
0 -10 4 -19 9 -19 5 0 12 -13 16 -29 4 -20 16 -34 35 -42 18 -9 26 -18 22 -28
-4 -10 -1 -13 11 -8 15 6 16 3 7 -13 -8 -16 -8 -20 4 -20 8 0 18 -5 22 -12 5
-7 3 -8 -6 -3 -10 6 -11 4 -4 -6 5 -8 10 -27 10 -44 1 -16 5 -39 9 -50 5 -14
4 -16 -3 -7 -6 10 -10 -13 -10 -70 -4 -286 -1 -486 7 -615 14 -200 13 -298 -4
-428 -24 -187 -41 -565 -25 -565 6 0 10 5 10 11 0 6 7 9 15 5 8 -3 15 -1 15 4
0 6 -7 10 -15 10 -22 0 -18 21 5 27 19 5 21 11 24 55 1 9 4 20 9 24 11 11 9
26 -3 19 -5 -3 -10 1 -10 9 0 9 3 15 8 15 24 -4 33 3 27 21 -8 24 1 26 21 5
22 -21 70 -19 95 6 11 11 29 21 40 22 10 1 19 7 19 13 0 7 6 15 13 17 8 4 7 6
-3 6 -9 1 -16 10 -16 21 0 22 12 27 19 8 3 -8 6 -6 6 5 1 9 -3 17 -8 17 -8 0
41 83 69 117 6 7 10 18 10 26 0 7 4 17 10 23 5 5 11 19 13 31 2 13 6 26 10 29
4 4 7 18 7 30 0 13 5 26 10 29 7 4 10 77 8 210 -2 112 -6 201 -10 198 -12 -6
-10 11 2 23 6 6 6 22 -1 44 -6 19 -10 51 -10 70 2 84 -37 127 -65 72 -6 -12
-21 -33 -33 -46 -26 -27 -26 -46 -2 -94 25 -50 87 -237 96 -289 14 -89 -46
-276 -115 -358 -10 -11 -22 -47 -29 -79 -12 -63 -27 -90 -44 -79 -6 4 -8 0 -4
-11 5 -14 3 -16 -12 -11 -12 3 -21 0 -25 -10 -3 -8 -16 -15 -30 -15 -19 0 -26
7 -31 30 -4 16 -4 34 0 40 3 5 8 20 10 32 3 12 16 32 31 44 26 23 32 38 33 83
1 20 5 23 29 18 22 -4 31 1 48 28 45 69 66 167 46 217 -8 20 -8 28 0 30 7 3 3
13 -10 26 -12 12 -22 20 -22 17 0 -14 -43 35 -55 62 -7 17 -23 36 -34 42 -18
10 -23 7 -43 -29 -13 -22 -26 -40 -30 -40 -11 0 -10 38 2 45 5 3 0 15 -12 27
-16 16 -18 22 -7 29 8 5 9 9 4 9 -6 0 -12 20 -13 45 -1 25 3 45 8 45 6 0 10 9
10 20 0 11 7 23 16 27 8 3 13 12 10 19 -3 8 1 14 9 14 8 0 15 5 15 10 0 6 9
10 20 10 11 0 20 4 20 9 0 5 16 25 35 45 32 34 36 51 5 24 -9 -8 -9 -6 1 7 9
11 19 36 22 55 3 19 8 43 12 53 11 26 -10 21 -50 -15 l-36 -31 6 29 c4 16 11
41 17 56 5 15 7 32 3 37 -3 6 -3 11 2 11 4 0 9 42 11 92 2 51 7 95 11 98 5 3
7 37 5 75 -9 162 -10 304 -2 299 4 -3 8 -1 8 5 0 5 -6 12 -12 15 -8 4 -9 8 -3
11 18 9 3 326 -20 400 -19 63 -19 62 5 68 11 3 20 11 20 19 0 10 -2 10 -10 -2
-5 -8 -12 -11 -16 -8 -4 4 0 18 9 31 10 15 12 29 6 38 -6 10 -9 10 -9 2 0 -7
-4 -13 -9 -13 -11 0 -2 38 11 46 5 3 12 -3 15 -14 3 -11 11 -23 19 -26 12 -4
14 3 13 32 -1 20 5 53 13 72 8 19 18 53 22 75 8 43 49 134 79 176 24 33 24 75
2 122 -12 26 -14 41 -7 50 12 14 7 179 -7 242 -11 52 -30 99 -37 92 -3 -3 -1
-15 6 -26 8 -17 8 -21 -3 -21 -17 0 -40 24 -31 32 3 3 -3 5 -13 5 -14 -2 -18
5 -18 33 0 20 -9 47 -20 62 -90 121 -122 158 -137 158 -10 0 -18 6 -19 13 0 6
-5 3 -10 -8 -10 -19 -12 -18 -55 22 -41 40 -74 58 -58 31 4 -7 3 -8 -4 -4 -7
4 -12 15 -12 25 0 13 -10 20 -32 24 -18 3 -42 9 -52 13 -14 5 -17 4 -12 -5 8
-12 -14 -12 -24 0 -3 3 -36 9 -73 13 -55 5 -67 4 -61 -6 5 -7 -10 4 -31 25
-50 48 -103 73 -127 58 -14 -9 -16 -8 -12 4 5 11 -1 15 -19 15 -15 0 -43 11
-63 25 -27 18 -50 25 -86 25 -27 0 -62 7 -78 15 -36 19 -147 47 -179 46 -13
-1 -30 -6 -37 -12 -7 -6 -22 -8 -34 -4 -12 4 -20 2 -20 -5 0 -8 -9 -10 -24 -6
-19 5 -26 1 -32 -16 -6 -19 -7 -19 -16 -5 -5 10 -6 23 -2 30 5 9 4 9 -7 0 -17
-16 -53 -17 -43 -2 5 9 -1 10 -20 5 -17 -4 -26 -2 -26 5 0 6 -10 20 -22 31
-16 14 -23 15 -29 6 -5 -8 -10 -2 -15 16 -4 17 -11 25 -20 22 -7 -3 -15 0 -18
7 -2 7 -5 5 -5 -4 -1 -17 -45 -34 -61 -24 -15 10 -12 23 8 28 13 4 12 5 -5 6
-12 0 -24 5 -27 10 -5 7 -86 20 -171 26 -11 1 -29 6 -40 12 -24 12 -150 12
-162 -1 -4 -5 2 -7 15 -3 23 5 30 -7 11 -19 -14 -8 -60 16 -53 28 4 5 -8 2
-25 -6 -17 -9 -31 -21 -31 -26 0 -5 -7 -7 -15 -4 -9 4 -15 1 -15 -7 0 -9 -4
-8 -12 3 -17 22 -118 32 -118 12 0 -17 -22 -18 -37 -3 -7 7 -29 13 -50 15 -20
1 -39 7 -41 12 -2 6 -12 7 -24 4 -14 -3 -19 -1 -14 6 10 16 1 15 -37 -5 -18
-9 -34 -18 -37 -18 -40 -11 -58 -27 -64 -60 -9 -45 -15 -41 -20 11 -3 32 1 43
23 61 l26 22 -70 0 c-51 0 -80 -6 -107 -21z m-100 -68 c-7 -10 -14 -18 -15
-16 -6 6 9 36 18 36 5 0 4 -9 -3 -20z m755 -14 c16 -14 26 -30 22 -35 -10 -17
-28 -13 -22 4 4 8 2 17 -3 20 -6 4 -10 1 -10 -4 0 -6 -7 -11 -15 -11 -9 0 -15
9 -15 25 0 31 8 31 43 1z m522 -6 c3 -6 -1 -13 -10 -16 -19 -8 -30 0 -20 15 8
14 22 14 30 1z m15 -55 c17 -9 30 -22 30 -30 0 -20 -20 -19 -34 1 -6 8 -20 16
-31 18 -24 3 -33 26 -10 26 9 0 29 -7 45 -15z m254 -60 c-10 -8 -23 -15 -28
-15 -6 0 -1 7 10 15 10 8 23 15 28 15 6 0 1 -7 -10 -15z m61 -14 c-7 -22 -25
-29 -25 -10 0 6 -7 9 -15 5 -8 -3 -15 0 -15 5 0 7 11 9 25 7 18 -4 25 -1 25
10 0 8 3 13 6 9 3 -3 3 -15 -1 -26z m-1935 -86 c0 -14 -34 -32 -50 -28 -20 5
-20 5 1 24 17 14 49 17 49 4z m2641 -108 c-6 -6 -14 -7 -18 -2 -5 4 -2 10 5
12 6 3 13 14 13 26 2 20 2 20 6 -2 3 -13 0 -28 -6 -34z m-2851 13 c0 -5 -2
-10 -4 -10 -3 0 -8 5 -11 10 -3 6 -1 10 4 10 6 0 11 -4 11 -10z m-39 -56 c-11
-15 -21 -22 -21 -15 0 13 32 52 38 46 2 -2 -5 -16 -17 -31z m3299 -114 c0 -5
-4 -10 -10 -10 -5 0 -10 5 -10 10 0 6 5 10 10 10 6 0 10 -4 10 -10z m20 -44
c0 -3 -4 -8 -10 -11 -5 -3 -10 -1 -10 4 0 6 5 11 10 11 6 0 10 -2 10 -4z
m-3579 -95 c7 11 9 11 9 1 0 -15 -20 -36 -37 -39 -8 -2 -8 4 1 22 6 13 13 19
15 14 2 -7 7 -6 12 2z m3655 -68 c-10 -10 -19 5 -10 18 6 11 8 11 12 0 2 -7 1
-15 -2 -18z m14 -39 c0 -17 -23 -44 -38 -44 -16 1 -16 1 0 11 10 5 15 16 12
24 -4 9 0 15 10 15 9 0 16 -3 16 -6z m-2295 -412 c-3 -3 -11 0 -18 7 -9 10 -8
11 6 5 10 -3 15 -9 12 -12z m975 -85 c0 -5 -4 -6 -9 -2 -6 3 -14 -3 -20 -12
-6 -10 -11 -12 -11 -5 0 7 5 21 12 32 9 14 14 16 20 7 4 -7 8 -16 8 -20z m40
19 c0 -3 -4 -8 -10 -11 -5 -3 -10 -1 -10 4 0 6 5 11 10 11 6 0 10 -2 10 -4z
m-2484 -73 c-10 -10 -19 5 -10 18 6 11 8 11 12 0 2 -7 1 -15 -2 -18z m2077 7
c9 -11 13 -20 7 -20 -5 0 -14 9 -20 20 -6 11 -9 20 -8 20 2 0 11 -9 21 -20z
m-2043 -61 c0 -5 -4 -9 -10 -9 -5 0 -10 7 -10 16 0 8 5 12 10 9 6 -3 10 -10
10 -16z m524 -302 c-3 -9 -12 -13 -20 -10 -19 7 -18 21 4 25 22 5 24 4 16 -15z
m2716 -52 c10 -12 10 -15 -4 -15 -9 0 -16 7 -16 15 0 8 2 15 4 15 2 0 9 -7 16
-15z m21 -168 c-10 -9 -11 -8 -5 6 3 10 9 15 12 12 3 -3 0 -11 -7 -18z m39
-11 c0 -11 -19 -15 -25 -6 -3 5 1 10 9 10 9 0 16 -2 16 -4z m-3159 -39 c-10
-9 -11 -8 -5 6 3 10 9 15 12 12 3 -3 0 -11 -7 -18z m3134 13 c3 -5 1 -10 -4
-10 -6 0 -11 5 -11 10 0 6 2 10 4 10 3 0 8 -4 11 -10z m289 -1392 c26 -28 47
-88 37 -106 -9 -15 -10 -14 -11 6 0 13 -4 20 -10 17 -5 -3 -7 -25 -3 -51 3
-25 2 -49 -3 -52 -17 -13 -53 -70 -60 -96 -3 -14 -9 -26 -13 -26 -17 0 -20 15
-6 39 24 46 39 125 21 118 -7 -3 -11 21 -12 69 -1 41 2 74 7 74 5 0 6 -6 3
-14 -3 -7 2 -16 11 -20 18 -6 30 16 21 39 -7 18 1 19 18 3z m-64 -487 c0 -6
-4 -13 -10 -16 -5 -3 -10 1 -10 9 0 9 5 16 10 16 6 0 10 -4 10 -9z"/>
<path d="M6600 18580 c0 -5 5 -10 11 -10 5 0 7 5 4 10 -3 6 -8 10 -11 10 -2 0
-4 -4 -4 -10z"/>
<path d="M3078 17973 c-10 -3 -18 -9 -18 -14 0 -12 37 -12 45 0 7 12 -5 19
-27 14z"/>
<path d="M5285 17579 c-11 -17 -2 -18 19 -3 17 12 17 14 4 14 -9 0 -20 -5 -23
-11z"/>
<path d="M6108 17453 c7 -3 16 -2 19 1 4 3 -2 6 -13 5 -11 0 -14 -3 -6 -6z"/>
<path d="M6065 16670 c-12 -13 -25 -18 -41 -14 -34 9 -56 -8 -24 -18 22 -7 22
-7 -5 -4 -16 2 -41 7 -55 11 -24 6 -24 6 3 -10 15 -8 27 -17 27 -18 0 -2 -17
-2 -37 0 -36 3 -36 2 -13 -8 16 -7 20 -13 12 -16 -7 -3 -20 -1 -30 3 -30 13
-162 30 -175 22 -9 -6 -9 -8 1 -8 7 0 10 -5 7 -11 -4 -6 -23 -8 -46 -5 -32 4
-37 3 -32 -10 5 -14 0 -15 -28 -10 -19 3 -28 3 -21 0 20 -10 13 -22 -12 -20
-13 0 -22 4 -20 8 3 4 -4 6 -15 5 -11 0 -17 -5 -14 -10 3 -4 -1 -8 -8 -6 -41
5 -64 -4 -95 -38 -19 -20 -34 -32 -34 -26 0 6 -12 13 -26 16 -20 4 -25 1 -21
-12 3 -13 -3 -16 -30 -16 -35 2 -39 -5 -23 -36 12 -21 7 -24 -21 -9 -17 9 -18
8 -10 -12 10 -28 3 -57 -9 -38 -13 21 -32 2 -20 -20 14 -26 13 -33 -5 -27 -19
8 -29 -10 -27 -46 2 -17 -2 -26 -8 -22 -19 12 -10 -20 9 -35 14 -10 17 -18 11
-30 -11 -21 -3 -104 11 -108 5 -2 9 -11 9 -20 0 -10 9 -34 19 -54 11 -19 17
-39 13 -44 -4 -4 -2 -4 4 -1 7 4 19 -5 29 -19 24 -37 71 -85 77 -78 3 3 9 -7
12 -22 l7 -27 15 22 c8 11 22 21 30 21 13 0 19 13 15 34 -1 5 8 6 19 3 14 -3
23 0 27 10 5 12 7 12 14 2 5 -8 3 -17 -4 -21 -8 -5 -7 -8 5 -8 9 0 20 5 23 10
3 6 11 10 16 10 6 0 7 -4 4 -10 -4 -6 5 -10 20 -10 14 0 24 -4 21 -9 -8 -13
21 -23 79 -27 28 -3 66 -6 85 -9 29 -4 138 -4 201 -1 9 0 15 6 12 13 -7 17 2
16 20 -1 13 -13 19 -11 51 18 20 19 42 34 49 33 42 -1 77 4 77 13 0 5 -7 6
-17 3 -11 -4 -14 -3 -9 5 4 8 18 10 34 5 24 -6 26 -5 14 10 -8 9 -11 21 -7 28
5 8 1 9 -15 4 -15 -5 -20 -4 -16 4 4 6 14 11 22 11 8 0 14 4 14 10 0 5 7 7 14
4 8 -3 28 2 43 11 26 15 28 20 26 76 -1 49 2 63 20 79 11 11 19 20 16 21 -2 0
-12 2 -21 4 -10 2 -18 -1 -18 -6 0 -5 -7 -9 -17 -9 -15 0 -15 1 0 18 21 23 22
42 2 42 -18 0 -20 -17 -3 -22 7 -3 2 -7 -10 -10 -12 -4 -20 -2 -16 3 3 5 -2 9
-11 9 -10 0 -13 -5 -9 -12 4 -7 3 -8 -4 -4 -7 4 -12 14 -12 22 0 8 -4 12 -10
9 -5 -3 -10 1 -10 11 0 14 -2 15 -16 3 -15 -12 -16 -11 -9 11 6 20 5 23 -6 13
-18 -18 -34 -16 -19 2 11 13 6 14 -34 9 -29 -4 -46 -3 -46 3 0 6 -9 13 -20 16
-11 3 -20 1 -20 -5 0 -5 -5 -6 -10 -3 -6 4 -4 12 5 21 17 17 20 28 6 19 -5 -3
-13 0 -17 6 -5 9 4 10 34 6 28 -5 42 -3 45 6 3 8 9 7 18 -6 14 -18 51 -19 66
-2 5 4 1 4 -7 0 -13 -8 -13 -7 -1 8 16 20 22 22 19 5 -2 -8 6 -12 22 -11 84 9
171 3 164 -9 -4 -6 2 -8 16 -3 15 5 20 4 16 -4 -4 -6 -18 -11 -31 -11 -30 0
-39 -14 -20 -30 13 -10 12 -15 -8 -31 -12 -10 -17 -18 -11 -19 6 0 17 7 24 15
7 8 19 15 27 15 8 0 13 6 10 13 -2 6 4 23 14 36 23 29 24 50 2 81 -16 22 -16
23 0 17 11 -4 17 -1 17 8 0 8 -9 15 -20 15 -11 0 -23 8 -27 18 -7 19 -23 36
-67 70 -16 13 -61 52 -99 88 -49 47 -75 64 -88 61 -10 -3 -17 -1 -13 4 11 18
-23 9 -41 -11z m-695 -230 c0 -5 -2 -10 -4 -10 -3 0 -8 5 -11 10 -3 6 -1 10 4
10 6 0 11 -4 11 -10z m850 -40 c0 -5 -12 -10 -27 -9 l-28 1 25 8 c14 4 26 8
28 9 1 1 2 -3 2 -9z m-552 -292 c7 -24 15 -49 19 -56 4 -11 -6 -12 -53 -7 -33
4 -68 12 -79 18 -19 10 -18 12 10 18 17 4 26 7 20 8 -9 1 54 60 65 61 3 0 11
-19 18 -42z m89 36 c-3 -3 -12 -4 -19 -1 -8 3 -5 6 6 6 11 1 17 -2 13 -5z m56
-1 c-7 -2 -19 -2 -25 0 -7 3 -2 5 12 5 14 0 19 -2 13 -5z m191 -24 c20 -12 36
-24 36 -28 0 -9 -59 -39 -92 -47 -30 -7 -34 0 -19 40 7 17 7 26 -1 28 -17 6 0
28 22 28 10 0 35 -9 54 -21z m69 -121 c19 4 47 -14 47 -29 0 -5 -9 -9 -21 -9
-13 0 -18 -4 -13 -12 4 -7 3 -8 -5 -4 -6 4 -18 2 -26 -4 -12 -10 -16 -9 -21 4
-3 9 -10 13 -16 10 -5 -3 -7 -12 -4 -20 4 -10 -3 -13 -26 -10 -18 2 -41 1 -52
-3 -13 -5 -25 -2 -38 11 -10 10 -23 16 -29 12 -15 -9 -69 -12 -63 -3 2 4 -1 9
-7 11 -7 2 -4 10 7 18 15 12 16 13 9 1 -6 -11 -4 -13 7 -8 9 3 21 0 27 -6 8
-8 11 -8 11 2 0 11 3 11 16 0 10 -8 18 -9 22 -3 9 14 45 27 37 14 -3 -6 -1
-10 5 -10 6 0 8 -5 4 -12 -4 -7 -3 -8 4 -4 7 4 12 14 12 23 0 9 3 14 6 11 9
-10 59 7 60 20 3 25 5 27 17 12 7 -9 20 -14 30 -12z m82 12 c-3 -5 -12 -10
-18 -10 -7 0 -6 4 3 10 19 12 23 12 15 0z"/>
<path d="M5828 16638 c13 -13 62 -18 62 -6 0 4 -3 8 -7 9 -5 0 -21 2 -37 4
-21 3 -26 1 -18 -7z"/>
<path d="M4025 16595 c-11 -13 -26 -24 -33 -25 -7 0 -10 -4 -7 -10 3 -5 0 -7
-9 -4 -10 4 -17 -2 -22 -20 -3 -14 -15 -28 -25 -31 -10 -4 -19 -13 -19 -21 0
-8 -4 -14 -10 -14 -5 0 -7 8 -3 18 6 16 5 16 -14 -1 -11 -9 -23 -14 -26 -10
-4 3 -7 -4 -7 -16 0 -13 -4 -19 -10 -16 -6 4 -19 -4 -29 -16 -18 -22 -18 -23
3 -41 21 -17 21 -17 1 -19 -11 -1 -23 -1 -28 0 -4 1 -13 -10 -19 -24 -6 -14
-16 -25 -22 -25 -6 0 -3 -5 7 -11 24 -14 22 -38 -3 -32 -28 7 -25 -11 5 -31
31 -21 33 -40 3 -30 -21 6 -21 6 -5 -11 14 -14 15 -20 5 -32 -10 -12 -9 -17 5
-24 9 -6 17 -18 17 -29 0 -22 48 -82 60 -75 5 3 16 -2 25 -11 9 -9 19 -14 22
-10 3 3 12 -2 18 -11 11 -15 17 -15 40 -5 14 7 24 8 20 3 -3 -5 5 -11 17 -13
18 -2 24 -11 26 -36 2 -18 8 -30 13 -27 5 4 9 -1 9 -9 0 -8 11 -23 25 -34 13
-11 22 -22 19 -24 -3 -3 12 -9 32 -13 20 -3 43 -13 51 -21 8 -8 33 -14 56 -15
23 0 76 -1 119 -2 42 -1 74 1 72 5 -2 3 18 6 46 4 27 -1 50 1 50 5 0 8 46 27
105 44 22 7 39 17 38 23 -3 12 73 39 83 29 8 -7 1 -23 -23 -56 l-18 -24 30 7
c17 4 34 14 38 22 4 8 13 14 18 14 11 0 39 25 39 35 0 3 11 16 24 28 23 22 26
27 26 47 0 6 7 10 16 10 11 0 13 6 9 19 -3 12 0 23 8 28 23 14 40 71 34 117
-4 23 -2 47 2 52 16 17 22 64 9 64 -23 0 -46 53 -35 78 8 18 7 27 -6 40 -14
13 -17 14 -17 2 -1 -11 -3 -11 -11 3 -6 9 -15 14 -21 11 -7 -4 -8 -2 -4 4 4 7
-7 17 -29 26 -25 11 -34 20 -29 28 4 7 3 10 -1 5 -5 -4 -19 0 -32 8 -13 9 -23
13 -23 9 0 -3 -11 1 -25 10 -13 9 -42 16 -65 16 -23 0 -40 5 -40 11 0 7 -10 9
-27 5 -56 -14 -68 -16 -55 -10 28 13 9 25 -40 24 -29 -1 -60 -1 -68 0 -8 0
-28 -2 -45 -5 -16 -4 -42 -8 -56 -10 -14 -1 -36 -8 -49 -15 -17 -9 -25 -9 -34
0 -6 6 -6 11 -1 10 21 -4 33 0 39 15 3 8 2 14 -2 14 -28 -4 -34 1 -21 19 12
15 12 16 -1 5 -15 -12 -117 -16 -134 -6 -4 3 -2 9 5 14 10 6 6 9 -13 9 -14 0
-32 2 -40 5 -7 3 -22 -6 -33 -20z m385 -55 c-8 -5 -19 -10 -25 -10 -5 0 -3 5
5 10 8 5 20 10 25 10 6 0 3 -5 -5 -10z m-187 -37 c9 -8 -32 -29 -76 -37 -28
-5 -36 -4 -32 6 3 8 15 15 27 15 11 1 26 7 31 12 12 12 40 14 50 4z m648 -140
c-8 -15 -10 -15 -11 -2 0 17 10 32 18 25 2 -3 -1 -13 -7 -23z m-986 7 c3 -6
-1 -7 -9 -4 -18 7 -21 14 -7 14 6 0 13 -4 16 -10z m16 -47 c9 -7 19 -10 24 -6
4 5 5 3 2 -3 -4 -7 2 -14 13 -17 20 -5 28 -27 10 -27 -5 0 -10 5 -10 10 0 6
-6 10 -13 10 -7 0 -20 8 -28 18 -9 9 -25 22 -35 29 -18 12 -18 12 1 6 11 -3
27 -12 36 -20z m209 -48 c0 -12 -19 -12 -23 0 -4 9 -1 12 9 8 7 -3 14 -7 14
-8z m-180 -15 c0 -5 -7 -10 -15 -10 -8 0 -15 5 -15 10 0 6 7 10 15 10 8 0 15
-4 15 -10z m-40 -47 c0 -11 -4 -11 -20 -1 -31 20 -35 40 -5 26 14 -6 25 -17
25 -25z m425 -13 c-3 -5 -16 -10 -28 -10 -18 0 -19 2 -7 10 20 13 43 13 35 0z
m234 -107 c17 -10 31 -22 31 -26 0 -11 -51 -57 -64 -58 -6 0 -21 -2 -33 -5
-18 -3 -23 1 -23 15 0 11 4 22 9 25 4 3 11 19 14 36 7 34 22 37 66 13z m-705
-9 c3 -8 2 -12 -4 -9 -6 3 -10 10 -10 16 0 14 7 11 14 -7z m366 -11 c0 -9 7
-25 17 -35 26 -29 11 -30 -52 -4 -33 13 -53 26 -46 30 59 37 81 39 81 9z m540
-3 c0 -5 -2 -10 -4 -10 -3 0 -8 5 -11 10 -3 6 -1 10 4 10 6 0 11 -4 11 -10z
m-153 -30 c-1 -11 -5 -20 -9 -20 -10 0 -10 4 -2 24 8 22 13 20 11 -4z m157
-75 c-7 -28 -19 -33 -28 -10 -3 9 -18 15 -38 15 -23 0 -29 3 -19 9 7 5 28 8
46 7 27 -1 31 2 28 19 -4 18 -3 18 7 3 6 -10 8 -29 4 -43z m-364 -25 c0 -5 -5
-10 -11 -10 -5 0 -7 5 -4 10 3 6 8 10 11 10 2 0 4 -4 4 -10z"/>
<path d="M6250 16330 c8 -5 26 -10 39 -10 32 0 24 6 -19 14 -25 4 -31 3 -20
-4z"/>
<path d="M6824 16185 c8 -8 21 -15 28 -15 8 1 6 6 -6 15 -26 20 -42 19 -22 0z"/>
<path d="M3105 16068 c-17 -51 -25 -350 -11 -443 8 -56 9 -58 18 -30 5 17 9
72 9 124 0 81 2 94 18 98 11 3 27 28 41 61 13 31 30 65 38 74 14 16 11 23 -34
72 -50 54 -71 66 -79 44z"/>
<path d="M6657 15953 c-4 -3 -7 -11 -7 -17 0 -6 5 -5 12 2 6 6 9 14 7 17 -3 3
-9 2 -12 -2z"/>
<path d="M3343 15703 c-4 -10 -13 -22 -20 -26 -8 -5 -11 -16 -8 -28 7 -22 -12
-52 -26 -43 -5 3 -9 1 -9 -3 0 -5 9 -14 21 -21 26 -16 79 -6 79 14 0 9 5 12
10 9 6 -3 10 -1 10 4 0 6 7 11 15 11 12 0 12 6 -5 37 -11 21 -20 43 -20 50 0
20 -40 15 -47 -4z"/>
<path d="M3287 15370 c8 -30 21 -34 15 -5 -2 14 -8 25 -12 25 -5 0 -6 -9 -3
-20z"/>
<path d="M5295 15299 c-22 -11 -49 -28 -59 -39 -18 -18 -18 -20 -3 -26 11 -4
24 1 36 15 22 25 53 27 75 5 12 -11 27 -14 60 -9 42 7 69 -6 46 -20 -5 -3 -10
-15 -10 -26 0 -15 -5 -19 -17 -15 -10 3 -56 8 -103 11 -47 3 -89 10 -94 16
-15 14 -26 11 -20 -6 4 -9 -2 -16 -18 -19 -53 -11 -77 -13 -73 -5 3 4 -4 10
-14 14 -11 3 -32 20 -47 37 -14 18 -37 37 -50 44 -21 11 -129 30 -145 26 -4
-1 -24 -2 -45 -4 -24 -1 -47 -11 -62 -25 -12 -12 -29 -20 -37 -17 -28 11 -15
-14 24 -45 44 -35 71 -33 71 6 0 20 3 23 13 15 7 -6 26 -10 42 -8 17 2 42 0
58 -5 19 -5 25 -4 21 3 -5 7 2 9 20 6 15 -3 26 -1 26 6 0 6 6 2 12 -9 6 -11
16 -23 22 -27 7 -5 7 -8 -2 -8 -7 0 -10 -5 -7 -10 4 -6 -3 -8 -17 -6 -13 3
-25 5 -28 5 -3 1 2 6 10 11 9 6 10 10 3 10 -6 0 -14 -4 -17 -9 -3 -4 -17 -6
-31 -3 -15 2 -25 0 -25 -7 0 -7 -6 -11 -12 -9 -7 1 -33 -9 -58 -22 -25 -13
-47 -25 -50 -25 -30 -8 -67 -31 -97 -60 -38 -37 -60 -44 -69 -21 -4 9 -13 5
-36 -15 -33 -32 -58 -39 -37 -11 7 9 -12 -6 -42 -33 -56 -52 -97 -80 -106 -71
-3 2 8 11 25 20 16 8 32 24 35 35 4 16 -7 11 -51 -22 -103 -77 -132 -107 -146
-154 -6 -19 -4 -23 14 -23 12 0 19 -4 15 -10 -3 -5 -13 -6 -22 -3 -12 5 -14 3
-8 -8 5 -8 8 -26 6 -41 -1 -16 2 -28 9 -28 6 0 9 -3 6 -8 -2 -4 3 -16 11 -27
15 -19 15 -19 11 7 -3 15 -1 33 4 40 7 10 8 8 4 -4 -3 -10 -1 -18 4 -18 6 0 9
-3 9 -7 -6 -40 18 -44 27 -5 10 40 48 75 73 67 20 -6 30 -25 13 -25 -4 0 -13
-13 -20 -29 -9 -19 -18 -28 -28 -24 -10 4 -14 -3 -14 -26 0 -17 5 -31 10 -31
6 0 10 4 10 10 0 5 7 7 15 4 8 -4 15 -1 15 5 0 6 -3 10 -7 10 -18 -3 -33 2
-33 10 0 6 12 6 28 2 15 -4 33 -6 40 -4 8 3 10 -2 6 -14 -5 -16 -4 -16 10 1
14 17 16 18 16 3 0 -9 5 -17 10 -17 6 0 10 5 10 10 0 6 11 10 24 10 14 0 28
-4 31 -10 3 -5 15 -10 26 -10 10 0 19 -4 19 -10 0 -16 14 -12 38 10 18 17 20
25 12 40 -6 11 -7 20 -2 20 9 0 25 -37 23 -52 -1 -5 10 -8 23 -8 18 0 26 6 28
21 2 12 10 25 18 29 8 4 25 12 36 18 15 7 25 7 32 0 5 -5 61 -11 124 -12 65
-1 122 -6 134 -13 15 -8 24 -9 31 -2 6 6 39 13 74 15 35 3 65 9 67 14 2 6 16
3 33 -5 16 -9 29 -11 29 -6 0 15 151 11 167 -5 12 -11 10 -14 -11 -20 -13 -3
-26 -14 -29 -24 -3 -13 -11 -17 -26 -13 -12 3 -21 1 -21 -6 0 -6 -6 -11 -14
-11 -8 0 -16 -7 -20 -15 -6 -17 9 -21 19 -5 3 6 11 10 17 10 7 0 6 -6 -2 -15
-15 -18 1 -21 31 -5 13 7 19 7 19 0 0 -5 9 -10 20 -10 18 0 19 3 10 20 -10 18
-8 19 20 14 20 -5 30 -3 30 6 0 8 8 10 21 7 12 -3 32 1 45 10 22 14 24 14 18
0 -5 -13 1 -12 32 4 l39 19 7 -21 c7 -17 13 -20 34 -15 15 4 35 17 45 29 10
12 18 17 19 10 0 -9 11 -10 38 -4 2 1 -4 8 -12 17 -20 19 -20 30 -1 38 8 3 15
1 15 -4 0 -6 14 -10 31 -10 16 0 28 4 24 9 -3 5 3 12 14 16 24 7 35 69 20 116
-6 19 -12 41 -13 49 -2 18 -28 57 -38 59 -5 0 -17 1 -27 1 -16 0 -19 5 -15 28
3 20 2 23 -5 12 -9 -12 -11 -12 -17 4 -5 13 -9 14 -14 6 -10 -16 -31 -3 -24
14 3 9 -4 17 -18 21 -13 4 -31 14 -40 23 -20 17 -25 3 -5 -18 6 -7 -4 -2 -23
12 -19 14 -45 29 -57 33 -16 4 -23 14 -23 31 0 21 -2 23 -19 12 -15 -9 -22 -8
-37 7 -19 18 -18 18 2 13 17 -4 20 -2 17 13 -3 11 -14 19 -25 19 -14 0 -18 5
-14 16 5 12 2 15 -10 10 -8 -3 -22 0 -29 8 -12 12 -12 15 0 20 8 3 15 0 15 -7
0 -7 8 3 16 21 9 17 20 32 24 32 4 0 10 6 13 14 6 14 -16 16 -29 3 -16 -15
-23 -6 -18 22 5 24 2 29 -18 34 -49 14 -143 6 -183 -14z m-321 -394 c-8 -19
15 -19 39 -1 20 15 57 10 57 -8 0 -6 18 -12 40 -14 22 -1 40 2 40 7 0 6 12 6
32 0 18 -5 34 -9 35 -9 2 0 4 10 4 23 1 16 2 18 6 5 2 -10 11 -18 19 -18 8 0
14 -4 14 -10 0 -5 8 -10 17 -10 30 0 -25 -32 -61 -36 -17 -2 -40 -6 -52 -9
-11 -2 -58 2 -104 10 -45 8 -87 12 -92 9 -4 -3 -7 0 -6 8 2 7 -4 12 -14 10
-21 -3 -14 26 11 45 21 16 21 16 15 -2z m-63 -39 c-7 -8 -9 -21 -5 -28 5 -10
4 -10 -5 -2 -10 9 -10 16 0 32 7 12 15 19 18 17 2 -3 -2 -11 -8 -19z m959 0
c0 -3 -4 -8 -10 -11 -5 -3 -10 -1 -10 4 0 6 5 11 10 11 6 0 10 -2 10 -4z
m-1105 -25 c-3 -5 4 -12 15 -16 25 -8 10 -25 -36 -41 -26 -9 -33 -8 -42 6 -12
20 -6 30 18 30 10 0 23 7 30 15 14 16 25 21 15 6z m-135 -42 c0 -6 8 -9 18 -7
13 4 18 -1 20 -19 2 -20 -2 -23 -18 -18 -15 5 -23 0 -29 -17 -7 -15 -10 -17
-10 -7 -1 23 -41 33 -42 11 0 -14 -2 -13 -8 2 -9 24 18 63 31 43 5 -8 8 -7 8
6 0 9 7 17 15 17 8 0 15 -5 15 -11z m1018 -10 c4 -20 -48 -33 -63 -17 -7 8 -6
8 4 3 11 -6 13 -4 8 8 -3 9 -1 18 6 21 21 8 42 1 45 -15z m-674 -10 c5 -4 1
-15 -8 -25 -16 -15 -18 -15 -36 1 -30 27 -26 47 8 39 15 -4 31 -10 36 -15z
m199 -16 c-7 -3 -13 -12 -13 -21 0 -11 -8 -17 -25 -17 -14 0 -25 3 -25 8 0 4
5 7 11 7 8 0 8 4 0 14 -10 12 -8 14 11 9 18 -4 20 -3 8 6 -13 10 -13 12 0 21
11 6 19 5 30 -7 11 -12 12 -17 3 -20z m-845 -15 c-6 -18 -13 -27 -15 -21 -4
11 13 53 22 53 2 0 -1 -15 -7 -32z m589 9 c4 -7 0 -8 -11 -4 -10 4 -24 7 -32
7 -8 0 -14 4 -14 9 0 11 49 1 57 -12z m603 -97 c0 -5 -5 -10 -11 -10 -5 0 -7
5 -4 10 3 6 8 10 11 10 2 0 4 -4 4 -10z m-815 -20 c-3 -5 -1 -10 4 -10 6 0 11
-5 11 -11 0 -8 -5 -8 -15 1 -13 11 -12 30 1 30 3 0 2 -4 -1 -10z"/>
<path d="M3424 15266 c-9 -9 -8 -17 5 -32 16 -20 65 -54 77 -54 12 0 -7 51
-28 75 -24 28 -37 31 -54 11z"/>
<path d="M5635 15050 c3 -5 11 -10 16 -10 6 0 7 5 4 10 -3 6 -11 10 -16 10 -6
0 -7 -4 -4 -10z"/>
<path d="M5908 14673 c7 -3 16 -2 19 1 4 3 -2 6 -13 5 -11 0 -14 -3 -6 -6z"/>
<path d="M4846 14585 c4 -8 8 -15 10 -15 2 0 4 7 4 15 0 8 -4 15 -10 15 -5 0
-7 -7 -4 -15z"/>
<path d="M5310 14590 c0 -5 5 -10 11 -10 5 0 7 5 4 10 -3 6 -8 10 -11 10 -2 0
-4 -4 -4 -10z"/>
<path d="M4885 14571 c-6 -11 9 -23 19 -14 9 9 7 23 -3 23 -6 0 -12 -4 -16 -9z"/>
<path d="M5302 14561 c-10 -6 -9 -10 7 -14 14 -3 21 0 21 9 0 16 -9 18 -28 5z"/>
<path d="M5110 14433 c0 -7 -16 -11 -42 -11 -79 1 -88 -1 -81 -19 5 -14 1 -15
-33 -10 -21 3 -33 3 -26 0 22 -8 13 -22 -20 -31 -21 -5 -34 -15 -36 -28 -2
-10 -8 -29 -14 -40 -14 -29 -6 -59 15 -58 9 1 17 -2 17 -7 0 -5 -7 -9 -15 -9
-8 0 -15 -4 -15 -9 0 -10 25 -32 31 -27 2 2 18 6 36 9 31 6 31 6 23 -23 -7
-26 -6 -30 11 -30 10 0 19 -7 19 -15 0 -9 6 -12 18 -9 11 4 13 3 5 -3 -21 -15
-35 -65 -22 -74 7 -4 14 -29 15 -56 1 -26 4 -55 7 -63 9 -24 3 -80 -8 -81 -18
-1 -37 -22 -26 -28 6 -4 2 -12 -9 -19 -18 -11 -20 -10 -20 12 0 13 6 27 13 30
6 3 3 5 -8 3 -12 -1 -21 -11 -23 -25 -2 -13 -10 -26 -18 -29 -8 -3 -14 -11
-14 -19 0 -26 -29 -14 -32 13 -4 40 -35 43 -36 4 0 -17 -5 -38 -10 -47 -8 -15
-11 -12 -17 14 -3 18 -13 32 -21 32 -7 0 -16 11 -20 25 -3 14 -10 25 -14 25
-12 0 -21 -30 -13 -43 4 -6 0 -8 -10 -4 -12 4 -17 1 -17 -11 -1 -21 -25 -54
-33 -45 -4 3 -7 27 -7 52 0 25 -4 42 -8 36 -4 -5 -21 -15 -39 -21 -26 -10 -36
-9 -60 7 -34 23 -44 24 -37 4 10 -26 -17 -17 -49 16 -24 25 -33 29 -51 22 -29
-12 -36 -11 -78 17 -43 29 -58 61 -24 52 11 -3 24 -10 28 -16 5 -7 8 -7 8 2 0
8 -8 16 -18 19 -10 2 -22 14 -27 26 -12 27 -31 24 -27 -3 4 -24 -11 -26 -28
-5 -6 8 -22 17 -33 21 -12 4 -29 14 -37 23 -8 9 -27 22 -42 29 -16 6 -28 16
-28 22 0 5 -7 10 -15 10 -9 0 -18 7 -21 15 -4 8 -11 15 -18 15 -21 1 -69 48
-72 72 -4 34 -5 35 -14 13 -8 -18 -9 -18 -9 -2 -1 10 -5 15 -11 12 -5 -3 -10
3 -10 14 0 12 -4 21 -9 21 -17 0 -58 44 -54 58 3 6 0 12 -5 12 -6 0 -20 20
-32 45 -23 48 -31 53 -49 31 -10 -12 -10 -20 0 -38 8 -13 14 -25 14 -28 3 -16
37 -68 57 -86 42 -38 70 -76 64 -90 -3 -7 -1 -16 4 -19 6 -4 10 1 10 9 0 9 6
13 14 10 8 -3 12 -13 9 -25 -4 -12 0 -19 10 -19 8 0 17 -7 21 -15 3 -8 12 -12
21 -9 9 4 15 3 14 -2 -1 -5 3 -22 10 -39 12 -28 14 -28 21 -10 7 17 9 16 10
-10 1 -16 4 -24 7 -17 2 6 9 10 14 6 5 -3 5 -13 -1 -24 -7 -13 -6 -19 6 -24 8
-3 12 -2 9 4 -3 6 -1 10 4 10 10 0 15 -14 12 -32 -2 -16 18 -7 22 10 4 16 5
16 6 -1 1 -14 6 -17 24 -12 18 6 20 5 10 -6 -17 -17 -16 -29 2 -29 8 0 15 -4
15 -10 0 -5 6 -7 14 -4 9 3 17 -3 21 -15 3 -12 11 -19 16 -16 5 4 9 -1 9 -9 0
-8 5 -18 12 -22 8 -5 9 -2 5 10 -5 12 -3 16 5 14 7 -3 14 -14 16 -26 4 -25 6
-26 33 -12 15 8 19 7 19 -5 0 -8 -4 -15 -10 -15 -5 0 -7 -6 -4 -14 3 -8 -5
-21 -18 -30 l-22 -16 21 0 c12 0 25 5 28 10 5 8 11 7 20 0 8 -7 19 -9 25 -5 5
3 10 -1 10 -9 0 -8 8 -20 18 -25 9 -6 13 -11 8 -11 -5 0 -3 -7 4 -15 10 -12
10 -15 -1 -15 -24 0 13 -20 37 -20 12 0 24 -6 27 -14 3 -8 16 -16 29 -18 13
-2 27 -13 33 -25 12 -27 32 -30 38 -5 4 16 5 16 6 0 2 -26 37 -22 44 4 4 12 9
19 12 16 4 -3 2 -16 -5 -28 -11 -21 -5 -64 9 -55 5 2 17 -2 27 -10 10 -8 33
-15 49 -15 23 0 27 -3 15 -10 -9 -6 -11 -10 -3 -10 7 0 10 -7 7 -15 -9 -23 43
-40 62 -20 18 17 64 20 64 4 0 -6 7 -8 15 -5 9 3 38 -3 65 -13 34 -13 50 -15
53 -7 3 8 8 7 20 -2 13 -11 15 -10 10 7 -3 13 -1 21 6 21 7 0 9 5 6 10 -5 7 3
8 22 3 15 -4 67 -7 116 -6 48 1 87 -3 87 -8 0 -5 -10 -9 -22 -9 -12 0 -19 -3
-15 -6 11 -11 58 6 51 18 -5 7 0 9 15 5 12 -3 28 1 36 10 12 11 15 11 15 1 0
-10 3 -9 10 2 8 12 13 13 30 3 26 -17 30 -16 30 4 0 15 2 14 15 -4 19 -26 54
-36 62 -17 8 21 -6 31 -18 14 -9 -12 -10 -12 -5 3 3 10 6 21 6 23 0 2 7 4 16
4 8 0 13 4 10 8 -8 13 23 52 40 52 8 0 12 -4 9 -10 -4 -6 5 -10 21 -10 21 0
24 3 15 14 -16 19 -2 49 20 43 10 -3 30 4 44 15 23 18 23 21 10 35 -9 8 -13
18 -10 21 3 4 10 0 15 -7 7 -12 13 -12 41 -1 18 8 27 16 21 18 -17 5 -15 22 3
22 8 0 15 -6 15 -12 1 -19 30 23 30 43 0 9 9 19 20 22 25 6 26 -8 3 -22 -16
-9 -16 -10 -2 -11 9 0 22 7 29 15 14 17 95 22 85 5 -3 -5 -1 -10 4 -10 18 0
12 38 -6 43 -12 3 -8 5 9 6 29 1 45 16 26 24 -8 3 -6 6 5 6 10 1 15 6 12 11
-3 6 1 10 9 10 9 0 16 -5 16 -11 0 -6 7 -4 15 5 10 10 13 24 9 41 -5 19 -2 25
11 25 11 0 15 5 12 14 -3 8 2 16 14 19 11 3 19 9 18 14 -3 19 2 34 10 28 5 -3
12 3 14 12 4 17 5 17 6 1 1 -22 8 -23 28 -3 9 9 13 25 10 36 -4 15 0 23 14 26
10 3 19 12 19 20 0 10 6 12 19 8 17 -5 18 -2 11 29 -6 30 -4 36 16 47 13 7 24
19 24 26 0 8 14 27 30 43 17 16 30 35 30 42 -1 7 -13 -2 -29 -19 -15 -18 -33
-33 -39 -33 -7 0 -17 -11 -22 -25 -5 -14 -13 -25 -18 -25 -5 0 -37 -22 -72
-49 -35 -28 -67 -48 -71 -45 -5 2 -13 -5 -19 -16 -6 -11 -17 -20 -25 -20 -8 0
-15 -4 -15 -10 0 -5 -16 -16 -35 -24 -19 -8 -35 -19 -35 -23 0 -19 -103 -96
-132 -98 -16 -1 -34 -8 -39 -16 -7 -10 -8 -7 -7 10 2 13 -2 26 -9 28 -7 2 -13
-8 -15 -24 -2 -21 -9 -29 -27 -31 -21 -3 -23 -1 -17 22 7 29 -9 45 -19 18 -6
-15 -8 -14 -19 7 -14 26 -61 37 -82 20 -9 -7 -59 -6 -59 1 0 1 -11 3 -23 4
-13 2 -27 8 -32 15 -4 8 -16 10 -28 7 -11 -4 -23 -2 -27 4 -10 17 -25 1 -25
-27 0 -22 -2 -24 -16 -12 -10 8 -12 15 -5 17 24 8 9 23 -19 20 -38 -4 -49 12
-44 66 2 22 1 34 -2 25 -3 -11 -12 -15 -25 -12 -23 6 -24 16 -3 76 10 30 20
44 29 41 9 -4 15 8 20 37 4 24 14 49 22 57 8 8 12 21 9 28 -3 7 -1 16 4 19 6
4 10 -2 11 -12 0 -10 3 -13 6 -5 6 15 24 16 21 1 -2 -6 3 -14 10 -16 7 -3 13
1 11 8 -1 8 -1 28 0 44 2 29 3 29 13 8 6 -13 15 -23 21 -23 5 0 7 10 3 23 -3
12 -6 25 -6 30 0 4 -7 7 -15 7 -19 0 -19 11 -1 36 14 18 15 18 24 -5 l9 -25 5
27 c10 52 -64 75 -92 28 -9 -13 -10 -13 -9 -1 3 32 -1 42 -16 36 -8 -3 -15 -1
-15 5 0 6 -9 8 -19 4 -24 -7 -73 4 -65 16 4 8 -41 14 -85 11 -8 0 -21 7 -28
16 -7 10 -13 12 -13 5z m-21 -42 c10 -6 3 -9 -22 -8 -22 1 -32 4 -24 9 16 10
29 10 46 -1z m341 -41 c0 -5 -4 -10 -10 -10 -5 0 -10 5 -10 10 0 6 5 10 10 10
6 0 10 -4 10 -10z m-33 -36 c-3 -3 -12 -4 -19 -1 -8 3 -5 6 6 6 11 1 17 -2 13
-5z m760 -293 c0 -11 -4 -18 -8 -15 -4 2 -9 -3 -13 -11 -3 -8 -11 -15 -18 -15
-10 0 -10 2 1 9 7 5 10 14 7 20 -4 6 0 11 8 11 9 0 16 5 16 10 0 6 2 10 4 10
3 0 4 -9 3 -19z m-77 -62 c0 8 3 12 6 9 8 -8 -14 -48 -27 -48 -5 0 -12 7 -16
16 -7 20 18 38 29 21 6 -9 8 -8 8 2z m-40 -59 c0 -5 -5 -10 -11 -10 -5 0 -7 5
-4 10 3 6 8 10 11 10 2 0 4 -4 4 -10z m-78 -36 c-23 -18 -31 -32 -27 -44 6
-20 -10 -36 -20 -20 -3 5 -2 10 4 10 6 0 8 6 5 14 -5 14 42 66 61 66 5 0 -5
-12 -23 -26z m8 -55 c0 -11 -4 -17 -10 -14 -5 3 -10 15 -10 26 0 11 5 17 10
14 6 -3 10 -15 10 -26z m-140 -44 c-7 -8 -17 -15 -23 -15 -6 0 -2 7 9 15 25
19 30 19 14 0z m100 -7 c0 -6 -7 -7 -16 -4 -9 3 -18 6 -20 6 -3 0 -3 4 1 10 7
11 35 2 35 -12z m-200 -93 c-7 -8 -18 -15 -24 -15 -6 0 -4 5 4 10 8 5 11 10 7
10 -4 0 -2 10 5 23 11 19 13 20 16 4 2 -10 -2 -24 -8 -32z m-40 1 c0 -2 -8
-10 -17 -17 -16 -13 -17 -12 -4 4 13 16 21 21 21 13z m-1160 -40 c0 -11 -19
-15 -25 -6 -3 5 1 10 9 10 9 0 16 -2 16 -4z m110 -55 c0 -14 -18 -23 -31 -15
-8 4 -7 9 2 15 18 11 29 11 29 0z m27 -55 c-3 -7 0 -19 6 -25 9 -9 8 -11 -5
-6 -10 4 -18 9 -18 10 0 9 13 35 17 35 3 0 3 -6 0 -14z m843 -35 c0 -12 -39
-25 -47 -17 -4 3 1 6 10 6 10 0 17 5 17 10 0 6 5 10 10 10 6 0 10 -4 10 -9z
m-210 -56 c-7 -8 -17 -12 -23 -8 -6 4 -3 9 9 14 27 11 28 11 14 -6z m-280 -25
c0 -5 -4 -10 -10 -10 -5 0 -10 5 -10 10 0 6 5 10 10 10 6 0 10 -4 10 -10z"/>
<path d="M4780 14388 c0 -9 9 -18 20 -21 24 -6 26 -35 3 -44 -15 -6 -14 -7 3
-14 23 -8 54 16 54 43 0 10 7 18 17 18 14 0 15 2 4 13 -10 10 -15 8 -27 -8
-13 -17 -16 -18 -24 -5 -5 8 -10 11 -10 6 0 -5 -9 -1 -20 9 -17 15 -20 16 -20
3z"/>
<path d="M5360 14374 c0 -8 5 -12 10 -9 6 4 8 11 5 16 -9 14 -15 11 -15 -7z"/>
<path d="M6180 13940 c0 -5 5 -10 11 -10 5 0 7 5 4 10 -3 6 -8 10 -11 10 -2 0
-4 -4 -4 -10z"/>
<path d="M6087 13880 c3 -11 9 -17 14 -14 14 8 10 34 -5 34 -9 0 -12 -7 -9
-20z"/>
<path d="M4386 13863 c-6 -14 -5 -15 5 -6 7 7 10 15 7 18 -3 3 -9 -2 -12 -12z"/>
<path d="M4968 13853 c7 -3 16 -2 19 1 4 3 -2 6 -13 5 -11 0 -14 -3 -6 -6z"/>
<path d="M6110 13840 c-13 -8 -12 -10 3 -10 9 0 17 5 17 10 0 12 -1 12 -20 0z"/>
<path d="M6142 13821 c-8 -4 -20 -20 -27 -34 -13 -26 -13 -27 10 -27 13 0 33
10 45 22 11 12 19 22 17 23 -1 0 -9 6 -17 12 -9 7 -21 8 -28 4z m28 -21 c0 -5
-2 -10 -4 -10 -2 0 -12 -3 -20 -6 -12 -5 -15 -2 -10 10 7 17 34 22 34 6z"/>
<path d="M6060 13812 c0 -15 32 -24 44 -12 7 7 7 10 -1 10 -6 0 -18 3 -27 6
-9 3 -16 2 -16 -4z"/>
<path d="M4671 13764 c0 -11 3 -14 6 -6 3 7 2 16 -1 19 -3 4 -6 -2 -5 -13z"/>
<path d="M6001 13736 c-8 -10 -9 -16 -1 -21 5 -3 10 0 10 9 0 8 6 17 13 19 7
4 8 6 1 6 -6 1 -17 -5 -23 -13z"/>
<path d="M5955 13680 c3 -5 8 -10 11 -10 2 0 4 5 4 10 0 6 -5 10 -11 10 -5 0
-7 -4 -4 -10z"/>
<path d="M6409 13668 c-1 -5 -9 -152 -9 -173 0 -27 -20 -75 -31 -75 -5 0 -6
-13 -2 -30 4 -22 2 -30 -8 -30 -11 0 -11 -2 -1 -8 13 -9 6 -42 -9 -42 -5 0 -9
-7 -9 -15 0 -8 4 -15 9 -15 6 0 3 -20 -6 -45 -8 -25 -20 -45 -25 -45 -6 0 -6
-6 2 -15 6 -8 8 -20 4 -26 -5 -9 -11 -7 -21 6 -14 20 -16 16 -13 -28 1 -16 -4
-29 -14 -33 -16 -6 -13 -50 6 -86 6 -13 5 -18 -6 -18 -14 0 -30 -30 -31 -60 0
-9 -8 -14 -19 -12 -13 2 -17 -2 -14 -15 2 -10 -5 -26 -15 -35 -17 -15 -24 -33
-26 -64 -1 -6 -12 -16 -25 -22 -22 -10 -24 -16 -19 -47 3 -22 2 -35 -5 -35 -6
0 -13 12 -15 28 -3 22 -4 19 -6 -11 -1 -35 -3 -37 -26 -31 -16 4 -25 2 -25 -5
0 -7 6 -11 13 -10 34 4 40 -3 15 -17 -34 -18 -36 -26 -6 -22 15 2 23 -2 23
-12 1 -17 -19 -40 -33 -40 -6 0 -13 -6 -15 -12 -3 -8 -6 -5 -6 5 -1 27 -21 10
-21 -18 0 -19 -4 -23 -17 -18 -11 4 -14 3 -9 -5 4 -8 2 -10 -7 -6 -21 8 -27
-20 -12 -50 9 -16 10 -24 3 -20 -8 5 -9 2 -5 -9 4 -11 1 -17 -7 -17 -7 0 -19
-7 -26 -15 -8 -10 -9 -15 -2 -15 6 0 9 -7 5 -16 -3 -8 -11 -13 -17 -11 -6 3
-19 -6 -28 -18 -17 -22 -17 -23 13 -35 27 -12 28 -14 12 -25 -10 -7 -21 -11
-24 -9 -4 2 -9 -5 -12 -16 -3 -14 1 -20 17 -23 16 -3 15 -5 -7 -6 -15 0 -39
-8 -52 -17 -14 -9 -25 -13 -25 -9 0 3 -7 -1 -15 -9 -14 -14 -14 -18 1 -41 16
-25 16 -26 -4 -32 -27 -7 -28 -19 -2 -33 15 -8 17 -15 11 -33 -5 -12 -5 -34 0
-49 6 -21 4 -28 -7 -28 -8 0 -14 -7 -14 -15 0 -8 -8 -15 -17 -15 -14 0 -13 -3
5 -16 12 -8 22 -21 22 -29 0 -7 6 -16 13 -18 9 -4 8 -8 -3 -16 -13 -9 -12 -11
4 -11 11 0 27 -7 37 -16 17 -15 22 -15 58 -1 21 9 42 13 45 9 4 -3 17 5 29 18
24 27 25 65 1 56 -21 -8 -17 11 8 34 25 23 37 19 17 -7 -12 -16 -12 -17 2 -6
9 7 19 11 22 8 4 -3 5 -2 2 2 -3 3 0 12 6 20 10 11 15 11 27 1 13 -11 14 -10
4 9 -16 28 -15 33 4 33 8 0 12 -5 8 -11 -5 -8 -1 -8 14 0 55 29 188 302 237
487 14 51 33 114 44 141 25 65 55 209 76 368 10 72 23 141 30 155 7 14 13 63
14 108 1 46 6 93 12 103 6 11 9 30 6 42 -3 22 -4 22 -15 -3 -9 -21 -10 -15 -7
37 2 35 0 65 -6 68 -5 4 -9 15 -9 26 0 32 -64 139 -71 117z m-109 -628 c0 -5
-5 -10 -11 -10 -5 0 -7 5 -4 10 3 6 8 10 11 10 2 0 4 -4 4 -10z"/>
<path d="M3828 13622 c-16 -18 -42 -94 -52 -155 -4 -21 -10 -46 -13 -54 -4 -9
-2 -14 3 -11 5 4 10 -6 10 -20 1 -15 -1 -21 -3 -14 -8 22 -23 13 -23 -14 0
-22 3 -24 14 -15 12 10 15 7 14 -18 -1 -25 -3 -28 -15 -15 -21 20 -24 17 -13
-12 7 -18 7 -23 -2 -18 -8 5 -9 -2 -5 -26 4 -18 7 -44 8 -59 l1 -26 8 25 c4
14 8 40 9 58 1 34 15 43 25 15 4 -9 9 -44 12 -77 24 -287 23 -286 71 -376 25
-47 57 -101 72 -120 15 -19 44 -62 65 -94 21 -32 70 -94 109 -137 113 -122
181 -200 192 -219 6 -9 34 -44 64 -76 36 -40 48 -49 37 -29 -8 17 -29 43 -46
59 -33 32 -38 46 -15 46 18 0 20 21 3 38 -7 7 -9 12 -5 12 4 0 -1 9 -12 21
-11 12 -24 18 -30 15 -7 -5 -8 -1 -4 11 6 16 5 16 -10 4 -15 -12 -17 -11 -15
13 3 28 8 32 25 15 8 -8 13 -7 18 1 5 8 -4 23 -23 39 -23 21 -28 31 -21 44 8
13 6 15 -4 11 -16 -6 -32 35 -39 105 -1 8 -10 16 -20 19 -10 2 -15 8 -12 13 2
5 -4 14 -16 21 -11 7 -20 20 -20 28 0 8 -5 22 -10 30 -8 13 -11 12 -25 -5 -13
-16 -16 -17 -11 -3 3 10 1 20 -4 23 -6 4 -10 12 -10 18 0 7 4 6 10 -3 8 -13
10 -13 10 1 0 9 -7 20 -16 23 -10 4 -14 12 -10 22 4 10 -1 22 -11 30 -13 10
-14 13 -4 14 18 0 -6 30 -25 30 -8 0 -11 6 -7 17 4 11 3 14 -5 9 -8 -5 -12 1
-12 18 0 16 -6 26 -14 26 -14 0 -31 27 -27 44 1 5 -1 22 -5 39 -4 22 -8 26
-15 16 -7 -11 -9 -11 -9 2 0 9 7 19 15 23 22 8 18 25 -4 19 -15 -4 -20 2 -24
29 -2 19 2 45 9 61 13 24 13 27 -1 27 -10 0 -15 7 -13 18 2 10 -2 16 -11 14
-9 -2 -11 3 -7 14 7 18 -13 84 -26 84 -4 0 -7 3 -6 8 1 4 -5 32 -14 62 -9 30
-17 62 -16 70 1 42 -16 201 -22 205 -4 3 -14 -3 -22 -13z"/>
<path d="M6370 13570 c0 -5 5 -10 11 -10 5 0 7 5 4 10 -3 6 -8 10 -11 10 -2 0
-4 -4 -4 -10z"/>
<path d="M6510 13471 c0 -5 5 -13 10 -16 6 -3 10 -2 10 4 0 5 -4 13 -10 16 -5
3 -10 2 -10 -4z"/>
<path d="M5870 13400 c-13 -8 -12 -10 3 -10 9 0 17 5 17 10 0 12 -1 12 -20 0z"/>
<path d="M6080 13401 c0 -5 5 -13 10 -16 6 -3 10 -2 10 4 0 5 -4 13 -10 16 -5
3 -10 2 -10 -4z"/>
<path d="M5830 13390 c-9 -6 -10 -10 -3 -10 6 0 15 5 18 10 8 12 4 12 -15 0z"/>
<path d="M4895 13369 c-10 -15 3 -25 16 -12 7 7 7 13 1 17 -6 3 -14 1 -17 -5z"/>
<path d="M5290 13370 c0 -5 5 -10 10 -10 6 0 10 5 10 10 0 6 -4 10 -10 10 -5
0 -10 -4 -10 -10z"/>
<path d="M5350 13370 c0 -5 4 -10 9 -10 6 0 13 5 16 10 3 6 -1 10 -9 10 -9 0
-16 -4 -16 -10z"/>
<path d="M6301 13259 c-11 -19 -11 -21 4 -15 9 3 19 6 21 6 2 0 4 7 4 15 0 21
-13 19 -29 -6z"/>
<path d="M4790 13240 c-7 -4 -9 -13 -5 -20 6 -9 9 -9 16 1 7 11 9 10 9 -3 0
-19 25 -25 34 -9 9 13 -38 41 -54 31z"/>
<path d="M4892 13182 c6 -7 17 -11 24 -8 12 5 47 -3 85 -18 10 -5 16 -2 16 9
0 10 -10 15 -29 15 -15 0 -28 3 -28 8 0 4 -18 7 -39 7 -31 0 -37 -3 -29 -13z"/>
<path d="M5034 13168 c-10 -15 0 -18 32 -9 l29 8 -28 5 c-15 3 -30 1 -33 -4z"/>
<path d="M5110 13135 c28 -16 66 -19 74 -6 3 5 -11 11 -32 15 -58 9 -70 7 -42
-9z"/>
<path d="M5848 13093 c6 -2 18 -2 25 0 6 3 1 5 -13 5 -14 0 -19 -2 -12 -5z"/>
<path d="M5074 13079 c-3 -5 0 -16 6 -24 6 -8 9 -19 5 -25 -12 -19 -16 -60 -5
-60 9 0 14 14 11 33 -1 5 3 6 9 2 6 -4 17 -2 23 4 17 14 57 2 57 -16 0 -11 6
-14 23 -9 12 3 25 6 30 6 4 0 7 7 7 15 0 8 15 19 33 24 17 5 26 10 20 10 -7 1
-13 9 -14 19 0 14 -2 14 -9 -3 -6 -13 -9 -15 -9 -5 -1 20 -41 46 -41 27 0 -13
-24 -28 -63 -41 -12 -4 -16 -2 -11 6 5 8 2 9 -10 5 -12 -5 -16 -2 -14 9 3 19
-38 39 -48 23z"/>
<path d="M5170 13069 c0 -5 -4 -7 -10 -4 -5 3 -10 1 -10 -5 0 -7 7 -9 16 -6 9
3 20 6 25 6 5 0 9 5 9 10 0 6 -7 10 -15 10 -8 0 -15 -5 -15 -11z"/>
<path d="M5040 12975 c7 -9 15 -13 17 -11 7 7 -7 26 -19 26 -6 0 -6 -6 2 -15z"/>
<path d="M5107 12978 c-6 -4 -9 -9 -7 -12 9 -8 149 -13 144 -4 -3 4 -20 8 -39
8 -19 0 -36 4 -40 9 -6 11 -40 10 -58 -1z"/>
<path d="M5590 12961 c0 -5 -3 -18 -6 -28 -5 -16 -4 -16 10 1 18 23 20 36 6
36 -5 0 -10 -4 -10 -9z"/>
<path d="M6187 12934 c-4 -4 -7 -14 -7 -23 0 -11 3 -12 11 -4 6 6 10 16 7 23
-2 6 -7 8 -11 4z"/>
<path d="M6075 12770 c3 -5 12 -7 20 -3 21 7 19 13 -6 13 -11 0 -18 -4 -14
-10z"/>
<path d="M5923 12484 c4 -4 2 -13 -4 -21 -7 -8 -8 -13 -1 -13 5 0 15 6 21 14
9 11 8 15 -6 20 -10 4 -14 4 -10 0z"/>
<path d="M4340 12330 c0 -5 5 -10 10 -10 6 0 10 5 10 10 0 6 -4 10 -10 10 -5
0 -10 -4 -10 -10z"/>
<path d="M4380 12255 c0 -8 8 -11 20 -8 11 3 20 7 20 8 0 1 -9 5 -20 8 -12 3
-20 0 -20 -8z"/>
<path d="M3857 12194 c-12 -13 -7 -34 8 -34 8 0 15 -7 15 -16 0 -8 5 -12 10
-9 8 5 8 11 0 20 -6 7 -9 18 -8 25 3 14 -15 24 -25 14z"/>
<path d="M4445 12080 c3 -5 8 -10 11 -10 2 0 4 5 4 10 0 6 -5 10 -11 10 -5 0
-7 -4 -4 -10z"/>
<path d="M5050 11995 c0 -8 7 -15 16 -15 8 0 13 4 10 9 -4 5 0 12 6 14 7 3 3
6 -9 6 -14 1 -23 -5 -23 -14z"/>
<path d="M5158 11973 c6 -2 18 -2 25 0 6 3 1 5 -13 5 -14 0 -19 -2 -12 -5z"/>
<path d="M8956 9953 c-6 -14 -5 -15 5 -6 7 7 10 15 7 18 -3 3 -9 -2 -12 -12z"/>
<path d="M6490 9760 c6 -11 20 -20 30 -20 13 0 20 7 20 20 0 16 -7 20 -30 20
-28 0 -30 -2 -20 -20z"/>
<path d="M6494 9697 c-9 -24 24 -76 49 -77 17 0 5 48 -18 70 -21 20 -25 21
-31 7z"/>
<path d="M8661 9534 c0 -11 3 -14 6 -6 3 7 2 16 -1 19 -3 4 -6 -2 -5 -13z"/>
<path d="M8653 9255 c0 -22 2 -30 4 -17 2 12 2 30 0 40 -3 9 -5 -1 -4 -23z"/>
<path d="M8532 8700 c0 -14 2 -19 5 -12 2 6 2 18 0 25 -3 6 -5 1 -5 -13z"/>
<path d="M8517 8630 c-24 -101 -29 -316 -9 -430 24 -135 44 -235 50 -240 2 -3
2 18 -2 45 -4 28 -10 100 -13 160 -3 61 -9 111 -14 113 -17 7 -20 69 -6 137
15 79 10 282 -6 215z"/>
<path d="M2521 8395 c-1 -39 9 -75 21 -75 5 0 6 4 3 10 -3 5 -10 29 -14 52 -7
36 -9 38 -10 13z"/>
<path d="M2688 7692 c2 -53 8 -98 13 -100 5 -2 9 -10 9 -18 0 -8 6 -11 16 -7
12 4 13 7 3 14 -11 6 -10 9 4 15 30 11 19 40 -14 36 -18 -3 6 37 24 42 20 6
21 7 5 17 -10 5 -18 19 -18 29 0 11 -4 20 -10 20 -5 0 -10 5 -10 11 0 6 -6 16
-13 24 -12 11 -13 -2 -9 -83z"/>
<path d="M2734 7504 c-4 -14 -2 -30 4 -36 8 -8 9 -5 6 9 -3 12 -1 24 5 27 14
9 14 26 1 26 -5 0 -13 -12 -16 -26z"/>
<path d="M8597 7479 c-9 -5 -21 -8 -26 -5 -5 3 -12 -1 -15 -9 -4 -12 2 -15 29
-13 26 1 35 7 35 20 0 21 1 21 -23 7z"/>
<path d="M4583 7213 c9 -2 23 -2 30 0 6 3 -1 5 -18 5 -16 0 -22 -2 -12 -5z"/>
<path d="M4474 7186 c-28 -13 -55 -30 -60 -37 -6 -11 -5 -11 9 0 15 12 19 12
31 -5 12 -16 11 -20 -6 -33 -12 -8 -31 -15 -44 -17 -20 -2 -22 0 -11 16 19 32
-1 35 -32 6 -32 -31 -48 -68 -25 -59 8 3 14 13 14 22 1 14 2 14 10 1 12 -21
-2 -82 -16 -72 -6 4 -14 14 -17 22 -3 8 -6 0 -6 -17 -1 -35 18 -45 39 -20 6 6
19 23 30 35 10 13 24 21 30 17 6 -4 13 6 16 24 6 30 27 46 45 35 5 -3 34 7 65
23 37 19 57 24 62 17 5 -8 23 -6 62 6 l55 18 -68 3 c-37 2 -68 1 -70 -3 -5
-15 -50 -13 -54 2 -4 13 -3 13 6 0 9 -12 11 -10 11 13 0 33 -9 33 -76 3z m16
-43 c0 -13 -3 -13 -15 -3 -8 7 -12 16 -9 21 8 13 24 1 24 -18z"/>
<path d="M4905 7199 c-6 -9 2 -13 19 -10 5 1 12 -2 15 -8 4 -6 12 -6 20 -2 9
6 4 11 -18 19 -19 7 -33 7 -36 1z"/>
<path d="M4785 7160 c44 -11 67 -11 60 0 -3 6 -25 9 -48 9 -40 -1 -40 -2 -12
-9z"/>
<path d="M4871 7150 c-10 -6 -10 -9 -1 -15 6 -4 17 -2 22 3 8 8 17 8 32 0 16
-8 18 -8 10 1 -14 15 -48 21 -63 11z"/>
<path d="M5110 7145 c0 -6 7 -20 15 -32 44 -62 -38 -183 -161 -240 -73 -33
-236 -73 -301 -73 -34 0 -52 -4 -48 -10 4 -6 -10 -10 -34 -10 -36 0 -71 19
-39 21 7 0 0 5 -16 9 -23 7 -32 5 -41 -7 -14 -19 -37 -9 -33 14 2 10 -13 21
-41 33 -89 35 -151 108 -151 177 l0 28 -15 -29 c-32 -60 -8 -122 67 -177 89
-64 166 -83 358 -83 137 -1 152 -3 120 -13 -19 -7 -43 -13 -53 -13 -10 0 -16
-4 -12 -9 8 -14 -31 -23 -67 -16 -21 5 -27 10 -18 15 9 5 5 8 -11 8 -33 0 -93
10 -163 28 -32 8 -62 12 -65 9 -3 -4 -7 -37 -9 -76 -4 -64 -6 -71 -33 -86 -16
-10 -29 -21 -29 -26 0 -4 5 -5 10 -2 6 4 10 -19 10 -62 0 -57 3 -70 20 -81 18
-11 20 -23 20 -132 0 -73 -4 -120 -10 -120 -5 0 -10 -9 -10 -20 0 -11 -4 -20
-10 -20 -5 0 -10 -4 -10 -10 0 -5 8 -10 17 -10 14 0 14 -3 5 -12 -10 -10 -15
-10 -22 2 -8 13 -12 12 -25 -5 -9 -11 -21 -32 -27 -48 -6 -17 -16 -26 -27 -25
-10 2 -15 -3 -13 -14 2 -10 -2 -18 -8 -18 -5 0 -10 5 -10 12 0 6 -3 8 -7 4 -5
-4 -8 -13 -8 -18 0 -6 -6 -13 -12 -15 -7 -3 -13 0 -13 6 0 14 -49 4 -70 -14
-11 -10 -47 -12 -126 -11 -61 2 -115 6 -120 9 -5 3 -29 8 -53 12 -33 5 -42 3
-39 -7 3 -7 12 -12 20 -10 9 1 19 -5 22 -14 4 -12 2 -15 -9 -10 -8 3 -15 1
-15 -5 0 -7 10 -9 24 -5 16 4 31 -1 47 -15 l24 -21 5 24 c4 13 9 18 13 12 3
-6 0 -20 -7 -30 -10 -13 -11 -24 -5 -36 12 -22 23 -23 45 -1 16 16 16 16 10
-5 -5 -14 -3 -22 4 -22 7 0 10 -6 7 -14 -3 -8 2 -16 13 -19 14 -3 17 0 13 12
-4 14 -3 14 10 -1 8 -10 19 -18 25 -18 14 0 27 -45 17 -60 -4 -6 -16 -8 -28
-4 -12 3 -19 3 -15 -1 4 -5 2 -15 -5 -23 -10 -13 -9 -15 11 -10 15 4 22 2 22
-8 0 -8 7 -14 16 -14 11 0 14 -5 10 -16 -3 -8 0 -27 8 -42 7 -15 16 -39 20
-54 5 -23 3 -25 -14 -21 -11 3 -20 0 -20 -6 0 -11 13 -15 38 -12 9 2 12 -4 8
-16 -9 -29 8 -46 43 -41 17 2 32 0 34 -6 2 -7 12 -7 30 1 18 8 28 9 33 2 3 -6
12 -8 19 -5 7 2 18 -1 24 -7 6 -6 11 -7 11 -1 0 15 90 16 96 1 5 -15 44 -20
44 -6 0 5 9 9 20 9 11 0 20 -4 20 -9 0 -5 8 -11 18 -14 9 -2 25 -8 35 -12 12
-5 17 -2 17 11 0 12 3 15 8 8 4 -7 16 -13 27 -15 11 -3 20 -9 21 -14 1 -18 16
-45 24 -45 5 0 3 14 -3 30 -6 17 -15 30 -20 30 -4 0 -5 5 -2 10 4 6 10 8 15 5
5 -3 11 4 15 15 6 18 8 18 29 5 12 -8 26 -12 29 -8 7 6 11 -11 8 -34 -2 -10 4
-10 23 -1 21 9 25 16 20 37 -5 24 -4 25 9 9 15 -19 32 -25 22 -8 -7 11 3 16
55 24 33 5 34 5 16 -9 -15 -11 -16 -15 -5 -15 21 0 38 20 32 36 -7 18 13 18
75 -2 38 -12 52 -22 54 -38 3 -24 39 -29 45 -6 4 12 3 13 -5 1 -5 -7 -15 -12
-21 -10 -7 3 -3 11 9 21 11 10 20 13 20 8 0 -6 13 -10 29 -10 16 0 31 -5 33
-11 3 -8 9 -7 19 4 10 9 26 13 43 10 23 -5 27 -10 23 -30 -2 -13 0 -26 4 -29
5 -3 9 1 9 9 0 10 8 13 26 9 16 -3 30 1 36 9 8 11 9 10 4 -3 -3 -12 0 -18 9
-18 18 0 20 -16 3 -23 -8 -3 -6 -6 5 -6 9 -1 17 4 17 9 0 27 33 65 48 56 6 -3
8 3 6 16 l-5 23 10 -23 c6 -12 7 -30 4 -40 -6 -15 -5 -15 10 -3 11 9 17 10 17
2 0 -11 46 -8 58 4 3 3 12 -5 19 -17 7 -13 12 -18 13 -12 0 14 43 11 48 -4 2
-7 -2 -12 -9 -12 -8 0 -8 -5 3 -17 9 -10 19 -27 22 -38 4 -11 18 -28 32 -39
l26 -18 -12 22 c-13 24 -6 36 25 42 11 2 19 10 17 16 -1 7 3 12 9 12 7 0 8
-11 4 -30 -5 -23 -3 -30 9 -30 9 0 16 -7 16 -15 0 -13 4 -12 21 4 12 11 18 24
15 29 -3 5 1 15 9 22 13 11 14 10 9 -4 -4 -10 -1 -16 7 -16 11 0 11 -3 -1 -10
-8 -5 -13 -10 -10 -11 3 0 13 -2 22 -4 11 -2 15 2 11 11 -4 10 0 12 12 8 10
-4 21 -1 26 7 6 10 9 10 9 2 0 -7 4 -13 9 -13 5 0 11 6 14 13 2 6 3 4 2 -5 -2
-10 2 -18 8 -19 31 -3 73 4 78 13 4 5 9 3 12 -6 4 -9 13 -16 22 -16 8 0 15 -6
15 -14 0 -8 7 -17 16 -20 12 -4 14 -1 9 14 -5 14 -2 20 9 20 9 0 16 -4 16 -9
0 -13 33 -23 40 -12 3 6 16 7 29 4 23 -6 23 -7 6 -20 -16 -11 -17 -13 -3 -13
9 0 19 4 23 9 6 10 65 -18 65 -31 0 -5 5 -8 11 -8 5 0 7 5 4 10 -3 6 -1 10 4
10 6 0 11 -8 11 -17 1 -16 2 -16 15 1 13 18 15 18 21 2 4 -11 14 -16 25 -13
11 3 19 2 19 -2 0 -4 16 -13 35 -20 22 -8 33 -17 29 -24 -4 -7 -4 -9 1 -5 4 4
16 3 27 -3 16 -8 17 -13 7 -25 -13 -16 -49 -9 -62 12 -11 18 -33 18 -41 -1 -3
-8 -13 -15 -22 -15 -13 0 -16 7 -11 35 3 19 2 35 -4 35 -5 0 -9 -7 -9 -16 0
-8 -4 -12 -10 -9 -18 11 -10 -21 11 -46 l21 -24 -21 -3 c-12 -2 -21 -8 -21
-13 0 -5 -7 -9 -15 -9 -8 0 -15 6 -15 13 0 9 -2 9 -9 -1 -4 -8 -11 -13 -15
-13 -15 2 -16 0 -5 -21 6 -13 8 -20 4 -16 -5 4 -15 2 -23 -5 -12 -9 -16 -9
-19 1 -3 6 -11 12 -19 12 -8 0 -14 -6 -14 -12 0 -9 -4 -8 -11 2 -8 12 -9 9 -5
-12 3 -14 9 -33 12 -42 3 -9 1 -16 -5 -16 -6 0 -11 6 -11 13 0 8 -7 14 -15 14
-9 0 -15 -9 -15 -21 0 -17 -4 -15 -20 12 -11 17 -25 32 -31 32 -6 0 -9 7 -5
15 3 8 1 15 -4 15 -16 0 -22 -21 -10 -35 7 -8 10 -21 7 -29 -3 -8 -1 -16 5
-18 6 -2 8 -10 4 -16 -9 -14 -36 -16 -36 -2 0 5 -7 7 -16 3 -8 -3 -14 -15 -13
-27 2 -37 -1 -41 -16 -19 -10 14 -21 20 -32 16 -11 -4 -14 -3 -9 5 4 7 1 12
-9 12 -9 0 -14 -4 -11 -9 9 -13 -20 -21 -53 -15 -20 4 -31 14 -35 30 -7 26
-36 33 -36 9 0 -8 -5 -15 -11 -15 -8 0 -10 -14 -6 -41 4 -31 2 -38 -6 -30 -6
6 -22 11 -37 12 l-25 0 25 11 c18 7 21 12 10 15 -8 2 -22 7 -30 10 -8 4 -21 5
-27 4 -7 -1 -13 6 -13 17 0 10 -6 24 -12 31 -11 11 -10 13 5 8 21 -8 23 8 2
17 -8 3 -15 13 -15 21 0 9 -4 14 -10 10 -5 -3 -6 -13 -3 -22 5 -12 2 -15 -10
-10 -12 4 -17 1 -17 -11 0 -11 -3 -13 -8 -6 -5 9 -10 8 -19 -1 -10 -10 -9 -15
4 -19 9 -4 21 -2 27 4 15 15 26 12 26 -6 0 -14 -8 -16 -55 -10 -50 6 -71 -3
-45 -19 12 -8 1 -35 -15 -35 -7 0 -16 17 -20 37 -4 20 -15 47 -25 60 -17 21
-20 22 -34 7 -9 -8 -16 -20 -16 -27 0 -6 7 -2 15 9 14 19 14 19 15 -2 0 -11 5
-25 11 -31 6 -6 9 -19 6 -29 -4 -16 -5 -15 -6 4 -1 26 -8 28 -33 5 -10 -9 -18
-11 -18 -5 0 6 8 16 18 21 22 13 -3 15 -27 1 -15 -8 -17 -6 -13 15 5 26 -3 31
-27 16 -7 -5 -10 -14 -7 -20 4 -6 3 -11 -2 -11 -5 0 -6 -15 -4 -32 5 -31 4
-32 -13 -18 -17 14 -17 14 -6 -7 7 -15 8 -23 1 -23 -5 0 -10 6 -10 13 0 9 -2
9 -8 0 -12 -19 -42 21 -35 46 5 18 1 21 -26 21 -23 0 -29 4 -25 15 4 10 0 15
-11 15 -11 0 -15 -5 -12 -14 3 -8 -1 -22 -8 -33 -13 -17 -14 -17 -15 0 0 19
-20 24 -20 4 0 -7 -5 -18 -12 -25 -9 -9 -14 -7 -24 6 -12 16 -13 16 -15 -3 -1
-16 -2 -16 -8 5 -5 16 -13 24 -24 22 -9 -2 -17 2 -17 8 0 5 -7 10 -15 10 -9 0
-18 6 -21 14 -4 10 -13 12 -34 6 -17 -5 -32 -4 -38 2 -15 15 -47 -20 -47 -51
0 -14 -6 -26 -12 -27 -7 -1 -16 -3 -20 -4 -5 -1 -12 -2 -17 -1 -5 1 -17 -6
-27 -15 -18 -16 -19 -16 -19 4 0 15 -5 19 -20 15 -22 -6 -25 0 -10 27 9 17 7
17 -20 7 -17 -6 -30 -17 -30 -23 0 -6 -7 -18 -16 -25 -15 -12 -16 -11 -9 10 6
20 4 23 -9 18 -10 -4 -14 -3 -11 2 3 5 1 13 -5 16 -8 5 -6 14 4 30 10 15 12
26 6 30 -15 10 -31 -4 -46 -41 -16 -38 -34 -45 -34 -14 0 15 -7 20 -28 20 -15
0 -33 -5 -40 -12 -9 -9 -12 -8 -12 5 0 20 -4 21 -29 5 -15 -9 -25 -9 -46 0
-17 8 -24 9 -20 1 4 -6 -1 -26 -11 -45 -19 -35 -34 -44 -34 -21 -1 6 -7 1 -15
-13 -8 -14 -14 -19 -15 -12 0 7 -5 10 -11 6 -18 -11 -58 16 -51 35 3 9 9 19
14 22 14 9 -2 39 -21 39 -21 -1 -57 -28 -48 -36 4 -4 -1 -13 -11 -20 -16 -13
-16 -13 1 -14 9 0 17 -4 17 -9 0 -16 -29 -33 -45 -27 -9 3 -13 2 -10 -4 3 -6
1 -10 -4 -10 -6 0 -10 -5 -9 -12 2 -6 -12 -16 -29 -21 -18 -5 -33 -14 -33 -19
0 -5 5 -6 10 -3 6 3 10 1 10 -5 0 -6 -8 -10 -17 -8 -10 2 -17 11 -17 20 2 17
-53 32 -62 16 -3 -4 -16 -8 -30 -8 -14 0 -22 4 -19 10 3 6 1 10 -4 10 -6 0
-12 -6 -12 -12 -1 -7 -2 -20 -3 -28 -1 -11 -13 -15 -41 -15 -39 0 -65 -22 -43
-36 6 -4 -2 -9 -16 -11 -14 -3 -26 -1 -26 3 0 5 -7 9 -15 9 -9 0 -15 -9 -15
-25 0 -24 -2 -25 -35 -19 -25 4 -39 2 -51 -10 -12 -12 -20 -14 -29 -6 -9 8
-15 8 -20 0 -10 -17 -23 -11 -18 9 3 11 -2 21 -11 24 -10 4 -13 1 -9 -9 8 -21
-10 -17 -27 6 -14 19 -15 19 -32 -12 -9 -18 -17 -40 -18 -50 0 -11 -6 -15 -21
-11 -12 3 -25 0 -29 -7 -9 -14 -49 -16 -94 -5 -20 6 -39 3 -61 -9 -24 -13 -37
-15 -58 -7 -24 10 -26 13 -15 36 13 28 4 45 -14 27 -7 -7 -22 -12 -34 -12 -15
0 -25 -9 -32 -30 -6 -16 -7 -32 -2 -35 14 -9 3 -88 -14 -100 -9 -7 -16 -17
-16 -23 0 -17 -70 -2 -92 20 -10 10 -23 18 -29 18 -19 0 -39 28 -32 45 5 14 2
16 -18 10 -13 -4 -30 -12 -36 -17 -9 -7 -13 -7 -13 1 0 7 6 19 13 26 30 35 37
45 30 45 -4 0 -1 5 7 10 8 5 10 10 4 10 -21 0 -25 32 -8 51 21 24 54 25 54 2
0 -9 3 -13 6 -10 10 9 -17 68 -27 61 -5 -3 -9 1 -9 10 0 8 6 16 13 19 10 4 10
7 0 18 -17 17 -16 29 2 29 8 0 17 12 21 28 8 37 26 73 52 105 7 8 11 23 11 33
-4 42 2 98 9 87 4 -7 13 -9 20 -4 10 6 10 15 2 35 -12 34 -12 36 0 36 6 0 10
-10 10 -22 0 -18 2 -20 10 -8 5 8 7 25 3 37 -4 17 -1 23 10 23 19 0 31 33 22
60 -4 13 -2 21 7 22 7 0 18 2 23 3 6 2 17 3 25 4 12 1 11 4 -3 12 -12 7 -16
17 -11 31 4 15 3 18 -7 13 -9 -6 -11 -3 -6 8 3 10 3 17 -1 17 -13 0 -183 -360
-247 -524 -15 -38 -31 -77 -35 -85 -17 -32 -50 -108 -50 -114 0 -4 -18 -45
-40 -92 -22 -47 -40 -89 -40 -93 0 -11 -62 -106 -72 -110 -5 -2 -8 -10 -8 -18
0 -8 -3 -14 -7 -14 -10 0 -28 -37 -60 -125 -14 -38 -32 -77 -38 -85 -7 -8 -20
-31 -30 -50 -10 -19 -33 -52 -51 -73 -40 -43 -44 -62 -11 -53 12 3 28 6 35 6
7 0 10 6 7 13 -4 6 1 3 9 -7 12 -14 19 -17 27 -9 7 7 22 7 47 1 54 -15 95 -17
110 -5 8 6 12 6 12 -2 0 -6 5 -11 11 -11 5 0 7 4 4 10 -3 5 0 11 7 11 7 1 0 5
-17 9 -25 7 -21 8 19 6 38 -2 51 -7 56 -21 5 -13 9 -15 14 -7 10 17 46 15 53
-3 5 -14 8 -14 28 -1 17 11 25 12 35 3 10 -9 11 -9 6 0 -5 9 -2 11 8 7 9 -3
13 -10 10 -15 -3 -5 8 -9 25 -9 24 0 29 3 24 16 -5 13 -2 15 15 10 12 -4 34 0
52 9 31 16 32 16 25 -5 -7 -22 -7 -22 21 -3 16 10 25 13 21 6 -10 -16 30 -28
48 -13 10 9 19 8 38 -5 18 -11 27 -13 32 -5 4 6 14 9 22 6 8 -3 23 -1 33 4 13
7 21 7 25 0 8 -14 45 -13 45 1 0 6 7 9 15 5 10 -3 15 1 16 12 0 11 4 8 10 -9
13 -36 54 -54 80 -36 10 8 16 17 11 22 -4 5 -1 5 5 1 18 -10 54 12 51 32 -2 9
5 18 14 20 20 4 100 -31 99 -44 -1 -5 4 -9 9 -8 6 1 17 2 25 3 8 0 12 7 9 15
-4 11 0 13 15 9 16 -4 20 -2 15 10 -3 8 -1 18 5 22 6 3 11 1 11 -4 0 -6 10
-11 21 -11 19 0 20 -2 8 -17 -13 -15 -12 -15 9 -4 32 17 83 5 75 -17 -3 -12
-2 -13 4 -5 5 7 27 13 48 13 88 1 86 1 75 16 -9 9 -9 18 0 31 11 17 11 17 6 0
-5 -15 -1 -17 24 -13 17 2 30 0 30 -5 0 -4 7 -6 15 -3 9 4 14 14 13 23 -2 10
3 15 14 15 10 -1 16 2 13 6 -11 18 17 21 30 4 14 -18 14 -18 15 4 0 23 25 31
32 10 4 -10 9 -9 21 3 9 10 30 15 50 14 25 -1 34 2 30 12 -3 9 3 13 20 13 16
0 26 -7 29 -18 3 -10 12 -19 21 -19 8 0 13 6 10 14 -3 8 2 14 13 15 11 0 24 2
29 3 6 2 17 4 25 5 11 1 9 4 -5 10 -18 8 -17 9 8 9 16 1 26 -3 23 -7 -12 -20
58 -7 82 15 17 16 29 20 36 13 14 -14 26 -12 26 5 0 8 6 15 14 15 8 0 22 7 30
16 9 8 16 12 16 7 0 -4 9 -14 21 -21 12 -8 18 -9 14 -3 -9 15 20 42 38 35 9
-3 26 2 39 10 14 9 28 13 31 9 4 -3 7 -2 7 4 0 19 -31 24 -46 8 -9 -8 -19 -15
-24 -15 -5 0 1 11 14 23 24 24 65 30 78 12 4 -5 8 2 8 18 0 22 7 30 40 44 22
10 40 21 40 26 0 4 8 3 18 -2 13 -7 22 -7 29 0 8 8 19 5 39 -8 16 -10 25 -13
21 -6 -4 6 -4 13 0 16 5 2 3 2 -4 1 -7 -2 -10 3 -7 11 7 18 34 8 34 -12 0 -13
3 -13 15 -3 8 7 13 16 10 20 -3 4 2 13 10 20 13 11 14 10 9 -4 -4 -9 -1 -16 6
-16 6 0 14 9 17 20 3 11 9 17 14 14 15 -9 49 6 49 22 0 13 -13 19 -35 15 -5
-1 -2 6 8 16 17 17 19 17 31 1 14 -19 46 -25 46 -8 0 12 60 44 68 36 3 -3 -1
-6 -9 -6 -12 0 -12 -2 0 -9 10 -6 28 -3 54 11 25 12 36 23 28 27 -8 5 -6 13 9
26 11 10 20 26 20 35 0 20 37 34 43 16 2 -6 8 -8 11 -4 4 3 -2 16 -13 27 -25
25 -29 66 -5 57 8 -3 12 -2 9 3 -6 11 31 25 44 17 15 -10 43 6 37 20 -7 17 20
19 28 2 4 -10 7 -10 12 -1 3 8 15 9 35 3 17 -5 29 -5 29 1 0 5 -9 9 -20 9 -11
0 -20 5 -20 10 0 6 4 10 9 10 5 0 16 3 25 6 12 5 16 0 17 -17 0 -16 3 -19 6
-9 3 8 12 19 19 23 8 4 14 15 14 24 0 10 6 13 16 9 9 -3 18 -6 20 -6 3 0 2 -4
-1 -10 -3 -5 0 -7 8 -4 8 3 17 14 20 25 4 15 11 18 30 14 17 -5 26 -2 30 9 4
9 17 16 31 16 16 0 26 7 31 23 5 17 8 18 12 7 10 -26 27 -29 47 -8 15 16 20
17 27 6 8 -11 12 -10 22 3 6 9 18 14 25 12 6 -3 12 2 12 11 0 19 20 22 20 4 0
-7 5 -5 11 5 10 17 12 17 36 2 23 -16 25 -15 30 4 4 17 13 21 44 21 26 0 42 5
45 15 4 10 20 15 44 15 26 0 48 9 75 30 21 17 32 30 25 30 -21 0 -5 11 22 15
67 11 78 12 78 6 0 -3 -11 -15 -25 -25 -30 -23 -32 -36 -5 -36 11 0 20 5 20
10 0 6 9 10 20 10 11 0 20 5 20 10 0 6 -6 10 -12 10 -10 0 -9 3 1 9 7 5 10 14
7 20 -5 8 0 8 21 0 39 -15 133 12 133 38 0 7 5 13 10 13 6 0 9 -3 9 -7 -5 -30
3 -36 19 -16 22 29 102 44 102 19 0 -9 8 -16 19 -16 11 0 26 -3 35 -6 11 -4
16 -1 16 10 0 9 7 16 15 16 8 0 15 -4 15 -10 0 -5 14 -10 31 -10 22 0 32 5 36
20 6 21 8 22 63 25 58 4 60 5 58 16 -3 13 40 20 48 7 3 -4 14 -3 25 2 16 9 19
7 18 -12 0 -13 -3 -18 -6 -11 -3 8 -12 5 -26 -11 -12 -13 -28 -21 -34 -19 -8
3 -13 -5 -13 -22 0 -22 3 -25 20 -20 12 4 27 1 35 -5 8 -7 22 -10 30 -6 8 3
15 1 15 -4 0 -6 -5 -10 -11 -10 -6 0 -9 -8 -7 -17 4 -20 -15 -42 -55 -62 -15
-8 -27 -23 -27 -34 0 -10 -9 -21 -20 -24 -11 -3 -20 -9 -20 -14 0 -5 -4 -9 -9
-9 -10 0 -71 -55 -71 -65 0 -3 4 -3 10 0 6 3 10 -1 10 -11 0 -11 -6 -15 -20
-11 -24 6 -38 -12 -19 -24 10 -6 8 -9 -8 -9 -16 0 -21 -4 -17 -15 6 -14 -11
-20 -38 -16 -5 0 -8 -3 -8 -8 0 -5 -21 -17 -47 -27 -27 -9 -52 -21 -57 -25
-16 -14 48 -24 154 -24 109 1 199 24 244 63 11 9 16 11 12 4 -7 -11 -4 -11 15
0 13 7 31 20 39 29 8 9 25 21 38 28 24 13 46 56 37 71 -3 5 -36 -9 -73 -32
-37 -22 -91 -49 -121 -59 -54 -19 -161 -26 -161 -11 0 9 81 51 147 77 24 10
41 21 38 25 -7 11 24 22 37 13 7 -3 8 -1 4 5 -4 7 -2 13 3 13 6 1 17 2 24 3 6
1 11 8 9 14 -2 10 3 10 16 3 13 -7 25 -6 38 3 25 17 64 26 64 16 0 -5 11 -20
23 -34 l24 -26 14 28 c16 32 44 62 59 62 5 0 10 8 10 18 0 9 14 37 30 61 16
24 27 47 24 52 -3 5 -1 9 4 9 8 0 9 19 3 53 0 4 -12 7 -25 7 -13 0 -27 7 -30
16 -5 14 -4 15 9 4 13 -10 15 -9 15 9 0 12 -4 20 -9 16 -5 -3 -12 -1 -16 5 -4
6 -10 8 -15 5 -5 -3 -11 -1 -15 5 -4 6 -10 8 -15 5 -5 -3 -12 0 -16 6 -3 6 0
15 7 20 11 7 10 9 -3 9 -10 0 -18 4 -18 9 0 8 -40 8 -75 1 -22 -5 -35 1 -35
15 0 8 -4 15 -10 15 -5 0 -10 6 -10 13 0 7 -8 19 -18 27 -22 19 -65 22 -58 4
3 -9 -1 -11 -12 -7 -9 4 -19 9 -22 12 -3 4 -17 12 -32 18 -19 9 -30 24 -38 53
-11 41 -30 55 -30 21 0 -10 -7 -21 -15 -25 -8 -3 -15 -1 -15 4 0 6 5 10 10 10
6 0 10 4 10 8 0 4 -14 9 -32 10 -18 2 -59 16 -92 32 -32 17 -66 30 -73 30 -10
0 -12 6 -8 20 6 20 -9 28 -20 10 -10 -16 -38 -11 -65 11 -14 11 -19 18 -13 14
9 -4 11 -1 6 11 -5 13 -14 15 -44 10 -21 -3 -40 -2 -44 4 -3 5 3 10 14 10 20
0 35 13 25 22 -2 3 -23 2 -45 -2 -34 -6 -45 -4 -60 11 -11 11 -28 19 -38 19
-11 0 -23 5 -27 11 -3 6 -17 8 -31 4 -17 -4 -23 -2 -17 6 4 7 2 10 -7 7 -8 -3
-27 5 -44 17 -41 30 -91 55 -110 55 -15 0 -15 -1 0 -16 24 -24 2 -43 -23 -21
-10 9 -26 17 -35 17 -22 0 -22 17 1 23 11 3 7 5 -10 6 -14 0 -28 7 -30 14 -2
11 -8 11 -28 0 -18 -9 -20 -13 -7 -13 9 0 17 -4 17 -9 0 -5 8 -12 18 -15 9 -3
-3 -2 -28 1 -54 6 -56 8 -40 28 11 14 10 17 -9 22 -15 4 -20 11 -16 22 5 12 3
13 -5 5 -9 -9 -9 -17 -1 -33 8 -14 8 -21 1 -21 -5 0 -10 5 -10 10 0 17 -18 11
-22 -7 -3 -15 -8 -13 -32 12 -15 17 -34 29 -42 27 -23 -5 -17 39 6 45 12 3 20
12 18 21 -5 24 -29 26 -35 3 -3 -12 -10 -21 -15 -21 -5 0 -7 -4 -4 -8 7 -12
-7 -29 -32 -37 -19 -5 -23 -3 -20 11 4 25 -45 43 -72 26 -12 -7 -21 -8 -25 -2
-3 6 1 10 9 10 9 0 16 5 16 11 0 6 -9 8 -20 4 -15 -5 -18 -3 -14 9 4 10 1 16
-7 16 -8 1 -2 8 14 16 20 11 32 12 46 4 11 -5 22 -6 25 -1 7 11 -4 21 -25 21
-10 0 -20 9 -24 19 -3 11 -13 22 -21 25 -10 4 -13 13 -9 27 6 18 4 20 -13 15
-13 -5 -22 -1 -26 10 -5 14 -10 12 -32 -12 l-25 -29 7 29 c5 21 4 27 -5 22 -6
-4 -11 -14 -11 -22 0 -22 -9 -17 -47 24 -30 31 -35 33 -30 14 4 -19 3 -21 -9
-11 -8 6 -14 18 -14 26 0 10 -6 13 -17 8 -15 -5 -16 -4 -5 6 18 19 15 32 -5
20 -24 -13 -23 -43 2 -58 17 -10 14 -11 -25 -8 -25 1 -39 1 -32 -2 6 -3 12
-12 12 -21 0 -12 -3 -13 -11 -5 -9 9 -15 8 -25 -2 -20 -20 -18 -46 3 -38 12 5
15 2 10 -10 -4 -10 -1 -17 6 -17 7 0 6 -4 -4 -10 -8 -5 -25 -6 -37 -3 -17 4
-20 11 -16 27 5 19 1 22 -30 23 -45 1 -56 9 -56 38 0 13 -4 27 -10 30 -5 3
-10 -1 -10 -9 0 -9 -4 -16 -10 -16 -5 0 -10 6 -10 13 0 8 -4 7 -10 -3 -5 -8
-10 -10 -10 -5 0 6 -18 16 -39 21 -32 9 -38 8 -34 -3 3 -7 2 -13 -2 -13 -9 0
-31 23 -38 40 -4 10 -6 8 -6 -7 -1 -28 -17 -38 -25 -17 -4 9 -5 18 -4 19 2 2
19 12 38 24 19 11 29 21 23 21 -7 0 -13 7 -13 16 0 10 -6 14 -14 11 -9 -4 -13
-1 -10 7 3 7 -8 16 -28 23 -37 11 -58 -1 -58 -33 0 -14 -3 -14 -16 -4 -8 8
-14 9 -12 4 2 -5 0 -10 -4 -12 -4 -2 -20 -9 -35 -17 -15 -8 -30 -11 -33 -7 -5
8 -9 8 -72 11 -32 1 -39 4 -28 11 13 9 8 14 -12 11 -5 0 -5 24 1 77 0 7 6 10
11 7 6 -3 10 -1 10 5 0 7 -9 14 -20 17 -25 7 -24 63 2 63 9 0 20 5 23 11 4 6
13 8 21 5 8 -3 11 0 7 10 -6 16 -29 19 -38 4 -5 -8 -11 -7 -21 1 -17 14 -18
36 -1 42 7 3 5 6 -5 6 -17 1 -22 12 -19 40 2 7 -2 10 -8 7 -5 -4 -13 -1 -17 5
-4 8 -3 9 5 5 6 -4 14 0 18 10 4 10 2 19 -4 21 -7 3 -6 16 3 41 7 20 10 48 7
61 -4 18 -3 22 7 16 9 -6 10 -3 1 14 -8 14 -8 21 -1 21 16 0 12 40 -5 46 -8 4
-15 11 -15 16 0 5 -13 23 -29 39 -27 27 -35 29 -101 29 -49 0 -69 3 -64 11 4
7 26 9 59 6 29 -3 58 -1 66 4 8 5 15 33 17 77 l4 69 57 17 c80 25 197 94 229
135 36 48 38 138 5 191 -13 19 -23 30 -23 25z m-412 -362 c-10 -2 -26 -2 -35
0 -10 3 -2 5 17 5 19 0 27 -2 18 -5z m-198 -153 c10 -7 -2 -8 -40 -4 -30 4
-57 8 -59 10 -10 9 86 3 99 -6z m156 1 c-4 -5 0 -12 6 -14 7 -3 -15 -6 -49 -6
-35 -1 -63 3 -63 8 0 6 18 9 40 8 23 -2 46 1 53 5 16 10 19 10 13 -1z m-306
-545 c0 -2 -9 -6 -20 -9 -11 -3 -20 -1 -20 4 0 5 9 9 20 9 11 0 20 -2 20 -4z
m828 -148 c17 -17 15 -28 -4 -28 -18 0 -46 25 -37 34 10 10 28 7 41 -6z m205
-98 c-3 -11 -9 -20 -14 -20 -10 0 -12 24 -2 33 13 13 21 7 16 -13z m-1308 0
c3 -6 -1 -7 -9 -4 -18 7 -21 14 -7 14 6 0 13 -4 16 -10z m1777 -59 c-1 -3 -8
-6 -17 -7 -15 -2 -21 26 -8 40 6 6 29 -23 25 -33z m-64 17 c7 -7 12 -17 12
-22 0 -6 -7 -3 -15 8 -8 10 -19 15 -26 10 -8 -4 -10 -3 -5 4 9 15 19 15 34 0z
m-1118 -23 c14 -1 59 -3 100 -4 72 -3 73 -3 35 -13 -44 -11 -248 -5 -280 8
-19 8 -19 8 5 15 14 4 45 5 70 2 25 -3 56 -6 70 -8z m-600 -45 c0 -5 -4 -10
-10 -10 -5 0 -10 5 -10 10 0 6 5 10 10 10 6 0 10 -4 10 -10z m128 -52 c-3 -7
-13 -15 -24 -17 -16 -3 -17 -1 -5 13 16 19 34 21 29 4z m1742 -8 c0 -5 -4 -10
-10 -10 -5 0 -10 5 -10 10 0 6 5 10 10 10 6 0 10 -4 10 -10z m480 -111 c0 -5
-7 -9 -15 -9 -8 0 -15 7 -15 15 0 9 6 12 15 9 8 -4 15 -10 15 -15z m-2213 -55
c-9 -9 -28 6 -21 18 4 6 10 6 17 -1 6 -6 8 -13 4 -17z m423 -14 c0 -5 -5 -10
-11 -10 -5 0 -7 5 -4 10 3 6 8 10 11 10 2 0 4 -4 4 -10z m1730 -271 c0 -6 7
-9 15 -5 8 3 15 1 15 -4 0 -6 8 -10 17 -10 12 0 14 -3 6 -11 -8 -8 -17 -7 -34
5 -13 8 -28 15 -34 15 -5 0 -11 4 -13 10 -2 6 3 11 12 11 9 0 16 -5 16 -11z
m884 -41 c-5 -8 -2 -9 9 -5 10 3 17 2 17 -2 0 -16 -28 -20 -40 -6 -8 10 -8 14
2 18 19 8 20 8 12 -5z m-40 -7 c3 -4 -6 -6 -19 -3 -14 2 -25 6 -25 8 0 8 39 4
44 -5z m166 -61 c-20 -13 -40 -13 -40 0 0 6 12 10 28 10 21 0 24 -2 12 -10z
m-1013 -6 c-3 -3 -12 -4 -19 -1 -8 3 -5 6 6 6 11 1 17 -2 13 -5z m-127 -55 c0
-11 -3 -11 -24 -3 -23 9 -20 23 4 17 11 -3 20 -9 20 -14z m1208 2 c3 -8 -1
-12 -9 -9 -7 2 -15 10 -17 17 -3 8 1 12 9 9 7 -2 15 -10 17 -17z m-208 -30
c-13 -26 -13 -31 5 -31 18 0 20 -20 3 -21 -7 0 -4 -4 7 -9 19 -9 19 -9 -2 -16
-13 -3 -23 -13 -23 -21 0 -10 6 -13 16 -9 8 3 12 2 9 -4 -10 -17 -48 -12 -41
5 3 8 2 25 -3 37 -6 18 -9 19 -14 5 -4 -10 -11 -17 -16 -17 -6 0 -8 7 -5 15 4
9 0 15 -10 15 -18 0 -21 16 -5 26 6 3 15 1 19 -6 5 -9 9 -9 14 -1 4 6 12 9 17
5 5 -3 9 -2 8 3 -3 13 12 43 22 43 6 0 5 -8 -1 -19z m-1120 -5 c0 -3 -4 -8
-10 -11 -5 -3 -10 -1 -10 4 0 6 5 11 10 11 6 0 10 -2 10 -4z m30 -5 c0 -13
-29 -35 -37 -27 -3 3 -1 6 5 6 7 0 12 7 12 15 0 8 5 15 10 15 6 0 10 -4 10 -9z
m-3100 -55 c0 -2 -8 -10 -17 -17 -16 -13 -17 -12 -4 4 13 16 21 21 21 13z
m2164 -41 c-4 -8 -10 -12 -15 -9 -11 6 -2 24 11 24 5 0 7 -7 4 -15z m-2177 -1
c-3 -3 -12 -4 -19 -1 -8 3 -5 6 6 6 11 1 17 -2 13 -5z m1395 -65 c-6 -19 -11
-27 -12 -19 -1 10 -4 9 -9 -5 -6 -13 -8 0 -7 37 1 55 2 57 19 39 15 -15 17
-24 9 -52z m1094 34 c-10 -10 -34 11 -29 24 5 14 8 13 20 -2 7 -10 11 -20 9
-22z m361 -16 c-2 -6 -12 -11 -23 -12 -18 -1 -19 2 -10 21 8 17 14 20 24 12 7
-6 11 -16 9 -21z m-1660 9 c-6 -16 16 -40 27 -29 4 4 11 1 16 -7 14 -22 12
-27 -10 -33 -12 -3 -20 -14 -20 -25 0 -27 -10 -52 -21 -52 -10 0 -52 39 -44
41 3 1 10 2 15 3 19 2 30 29 18 44 -9 10 -8 16 1 22 9 5 10 10 3 14 -13 8 -5
36 10 36 6 0 8 -6 5 -14z m653 0 c0 -3 -4 -8 -10 -11 -5 -3 -10 -1 -10 4 0 6
5 11 10 11 6 0 10 -2 10 -4z m210 -6 c0 -5 -5 -10 -11 -10 -5 0 -7 5 -4 10 3
6 8 10 11 10 2 0 4 -4 4 -10z m222 -12 c-3 -14 -2 -19 6 -14 7 4 12 1 12 -8 0
-19 -13 -27 -28 -17 -10 6 -10 15 -3 34 13 32 21 36 13 5z m355 6 c-3 -3 -12
-4 -19 -1 -8 3 -5 6 6 6 11 1 17 -2 13 -5z m-1347 -38 c0 -11 -19 -15 -25 -6
-3 5 1 10 9 10 9 0 16 -2 16 -4z m1580 -20 c0 -8 3 -21 6 -30 4 -11 1 -16 -11
-16 -12 0 -15 5 -11 16 4 9 1 23 -5 30 -9 11 -8 14 5 14 9 0 16 -6 16 -14z
m-1400 -10 c0 -3 -4 -8 -10 -11 -5 -3 -10 -1 -10 4 0 6 5 11 10 11 6 0 10 -2
10 -4z m740 -6 c0 -5 -5 -10 -11 -10 -5 0 -7 5 -4 10 3 6 8 10 11 10 2 0 4 -4
4 -10z m-830 -25 c-7 -9 -15 -13 -17 -11 -7 7 7 26 19 26 6 0 6 -6 -2 -15z
m52 -7 c-7 -7 -12 -8 -12 -2 0 6 3 14 7 17 3 4 9 5 12 2 2 -3 -1 -11 -7 -17z
m948 18 c0 -2 -7 -7 -16 -10 -8 -3 -12 -2 -9 4 6 10 25 14 25 6z m-733 -38
c-3 -7 -5 -2 -5 12 0 14 2 19 5 13 2 -7 2 -19 0 -25z m103 7 c0 -8 -7 -15 -15
-15 -9 0 -12 6 -9 15 4 8 10 15 15 15 5 0 9 -7 9 -15z m-1829 -18 c-10 -9 -11
-8 -5 6 3 10 9 15 12 12 3 -3 0 -11 -7 -18z m1429 -22 c-13 -25 -30 -33 -30
-15 0 6 4 10 9 10 5 0 13 9 16 21 4 11 9 18 13 15 3 -3 -1 -17 -8 -31z m2680
25 c0 -5 -4 -10 -10 -10 -5 0 -10 5 -10 10 0 6 5 10 10 10 6 0 10 -4 10 -10z
m-2870 -29 c0 -4 -6 -8 -14 -8 -8 0 -12 6 -9 14 5 13 23 9 23 -6z m3110 -31
c-8 -5 -19 -10 -25 -10 -5 0 -3 5 5 10 8 5 20 10 25 10 6 0 3 -5 -5 -10z
m-4090 -57 c0 -15 -2 -16 -10 -3 -8 13 -10 12 -10 -4 0 -15 -3 -17 -11 -9 -6
6 -8 16 -5 22 11 17 36 13 36 -6z m470 3 c0 -3 -4 -8 -10 -11 -5 -3 -10 -1
-10 4 0 6 5 11 10 11 6 0 10 -2 10 -4z m145 -6 c3 -5 1 -10 -4 -10 -6 0 -11 5
-11 10 0 6 2 10 4 10 3 0 8 -4 11 -10z m-535 -45 c8 -10 3 -12 -22 -10 -20 1
-34 8 -36 17 -4 19 41 13 58 -7z m2070 -66 c0 -8 5 -7 16 2 14 11 18 10 30 -5
12 -17 11 -21 -8 -38 -40 -34 -75 -19 -64 28 6 24 26 34 26 13z m-2382 -28 c3
-8 -1 -12 -9 -9 -7 2 -15 10 -17 17 -3 8 1 12 9 9 7 -2 15 -10 17 -17z m198
-31 c2 -20 -2 -30 -12 -30 -9 0 -12 8 -10 23 3 12 5 28 5 36 2 25 15 2 17 -29z
m1998 -30 c-6 -5 -24 21 -24 34 0 6 6 1 14 -10 8 -10 12 -21 10 -24z m-1994
-20 c0 -5 -2 -10 -4 -10 -3 0 -8 5 -11 10 -3 6 -1 10 4 10 6 0 11 -4 11 -10z
m1475 -37 c-3 -20 -11 -41 -18 -45 -19 -12 -37 -9 -37 7 0 8 7 15 15 15 15 0
19 10 16 43 -2 10 5 17 14 17 13 0 15 -7 10 -37z m-515 17 c0 -5 -11 -10 -25
-10 -14 0 -25 5 -25 10 0 6 11 10 25 10 14 0 25 -4 25 -10z m260 -7 c0 -10 -4
-14 -8 -8 -4 6 -11 13 -16 18 -5 4 -2 7 7 7 10 0 17 -8 17 -17z m180 -2 c0
-12 -7 -17 -22 -16 -32 2 -35 30 -3 31 18 1 25 -3 25 -15z m130 9 c0 -5 -4
-10 -10 -10 -5 0 -10 5 -10 10 0 6 5 10 10 10 6 0 10 -4 10 -10z m237 -22 c-3
-8 -6 -5 -6 6 -1 11 2 17 5 13 3 -3 4 -12 1 -19z m183 -11 c-10 -9 -11 -9 -6
1 4 7 2 12 -6 12 -9 0 -9 3 2 10 19 12 27 -7 10 -23z m-1676 -3 c4 -12 1 -14
-13 -9 -14 4 -21 0 -24 -12 -4 -15 -5 -14 -6 4 -1 13 6 23 17 26 9 3 18 5 18
6 1 0 5 -6 8 -15z m291 -4 c7 0 15 -9 18 -21 3 -12 10 -18 16 -14 6 3 11 2 11
-4 0 -6 7 -8 15 -5 10 4 15 0 15 -12 0 -14 2 -16 9 -6 4 8 10 13 12 12 2 -1
12 2 22 6 31 12 31 -5 -2 -35 -17 -16 -31 -25 -31 -20 0 18 -38 8 -43 -11 -3
-11 -11 -20 -17 -20 -7 0 -10 7 -6 18 4 12 1 11 -13 -5 -10 -12 -21 -19 -25
-16 -3 4 -6 -1 -6 -11 0 -25 -17 -11 -22 19 -4 17 0 29 11 35 9 5 11 10 5 10
-15 0 -36 -25 -27 -33 3 -4 -1 -7 -10 -7 -10 0 -17 -8 -17 -18 0 -25 -59 -59
-70 -41 -5 7 -5 20 0 29 6 11 5 21 -2 28 -9 9 -8 12 5 12 9 0 17 5 17 10 0 15
-37 12 -53 -5 -8 -8 -18 -11 -22 -7 -3 4 -4 -5 0 -19 5 -21 1 -31 -19 -47 -14
-11 -26 -25 -26 -31 0 -6 -7 -8 -15 -5 -22 9 -18 34 5 34 11 0 20 7 20 15 0
14 -23 11 -46 -6 -7 -6 -9 2 -6 24 3 17 10 35 16 39 7 5 5 8 -5 8 -9 0 -19 -7
-23 -15 -3 -8 -13 -15 -22 -15 -13 0 -15 -6 -10 -30 8 -40 -10 -39 -19 1 -5
22 -10 28 -15 18 -5 -7 -7 -16 -5 -19 2 -4 -10 -4 -27 -2 -21 3 -29 1 -24 -7
7 -11 -15 -41 -30 -41 -5 0 -3 5 4 12 19 19 14 28 -13 28 -25 0 -35 15 -14 22
19 6 -1 36 -22 31 -14 -4 -19 0 -19 13 0 28 16 48 30 39 8 -5 11 -4 6 3 -3 6
-2 13 4 17 6 4 8 11 5 16 -4 5 5 9 19 9 13 0 26 -5 28 -11 2 -6 18 -12 35 -13
18 -2 39 -9 48 -16 12 -10 15 -10 15 1 0 11 2 11 8 2 14 -22 72 6 72 35 0 19
4 23 20 19 11 -3 20 -1 20 4 0 6 9 5 21 -2 12 -6 29 -9 40 -6 24 6 46 -18 24
-27 -8 -3 -15 -10 -15 -16 0 -6 4 -9 8 -6 4 3 27 7 50 10 32 4 42 2 42 -10 0
-8 5 -14 10 -14 14 0 13 23 -2 38 -7 7 -23 12 -36 12 -15 0 -22 5 -19 13 2 7
17 11 36 9 19 -1 31 3 32 10 0 10 2 10 6 1 2 -7 11 -13 18 -13z m119 -1 c-9
-15 -34 -10 -28 5 3 8 12 12 20 9 8 -3 11 -9 8 -14z m325 -21 c-11 -20 -11
-20 -32 -12 -12 4 -12 10 -4 28 9 19 15 21 28 13 13 -8 15 -15 8 -29z m-46 25
c-7 -2 -21 -2 -30 0 -10 3 -4 5 12 5 17 0 24 -2 18 -5z m201 -4 c-3 -5 -11 -9
-19 -9 -8 0 -16 4 -19 9 -3 5 5 9 19 9 14 0 22 -4 19 -9z m336 1 c0 -5 -4 -10
-10 -10 -5 0 -10 5 -10 10 0 6 5 10 10 10 6 0 10 -4 10 -10z m-1467 -31 c7 -1
19 -1 27 0 10 1 7 -5 -9 -19 -12 -11 -27 -18 -31 -15 -4 3 -19 -6 -31 -20 -13
-13 -26 -25 -29 -25 -3 0 -5 17 -5 38 0 47 29 79 52 57 8 -8 20 -16 26 -16z
m147 21 c0 -5 -4 -10 -10 -10 -5 0 -10 5 -10 10 0 6 5 10 10 10 6 0 10 -4 10
-10z m1480 0 c0 -5 -7 -7 -15 -4 -8 4 -15 8 -15 10 0 2 7 4 15 4 8 0 15 -4 15
-10z m-742 -38 c2 -7 -7 -12 -23 -12 -24 0 -26 2 -15 15 14 17 31 16 38 -3z
m499 -7 c0 -8 -4 -15 -9 -15 -4 0 -8 7 -8 15 0 8 4 15 8 15 5 0 9 -7 9 -15z
m143 5 c0 -5 -2 -10 -4 -10 -3 0 -8 5 -11 10 -3 6 -1 10 4 10 6 0 11 -4 11
-10z m-1673 -52 c-3 -8 -6 -5 -6 6 -1 11 2 17 5 13 3 -3 4 -12 1 -19z m753
-28 c0 -5 -4 -10 -10 -10 -5 0 -10 5 -10 10 0 6 5 10 10 10 6 0 10 -4 10 -10z
m1040 0 c0 -5 -4 -10 -10 -10 -5 0 -10 5 -10 10 0 6 5 10 10 10 6 0 10 -4 10
-10z m-1810 -40 c8 -5 12 -11 9 -14 -3 -3 -14 1 -25 9 -21 16 -8 20 16 5z m78
-2 c-6 -18 -28 -21 -28 -4 0 9 7 16 16 16 9 0 14 -5 12 -12z m432 2 c0 -5 -4
-10 -10 -10 -5 0 -10 5 -10 10 0 6 5 10 10 10 6 0 10 -4 10 -10z m133 -5 c4
-8 3 -16 -1 -19 -4 -3 -9 4 -9 15 -2 23 3 25 10 4z m-343 1 c0 -3 -4 -8 -10
-11 -5 -3 -10 -1 -10 4 0 6 5 11 10 11 6 0 10 -2 10 -4z m1100 -106 c0 -5 -4
-10 -10 -10 -5 0 -10 5 -10 10 0 6 5 10 10 10 6 0 10 -4 10 -10z m-432 -125
c-3 -3 -9 2 -12 12 -6 14 -5 15 5 6 7 -7 10 -15 7 -18z m-278 5 c0 -5 -2 -10
-4 -10 -3 0 -8 5 -11 10 -3 6 -1 10 4 10 6 0 11 -4 11 -10z"/>
<path d="M3532 4301 c-10 -6 -7 -10 12 -13 14 -3 26 -2 26 3 0 4 8 10 18 12 9
3 4 5 -13 6 -16 0 -36 -3 -43 -8z"/>
<path d="M3272 4278 c2 -13 11 -24 21 -26 21 -4 22 14 3 34 -21 20 -28 17 -24
-8z"/>
<path d="M3490 4275 c-7 -9 -11 -18 -8 -20 3 -3 11 1 18 10 7 9 11 18 8 20 -3
3 -11 -1 -18 -10z"/>
<path d="M3600 4185 c0 -8 4 -15 9 -15 5 0 11 7 15 15 3 9 0 15 -9 15 -8 0
-15 -7 -15 -15z"/>
<path d="M4530 7105 c-8 -9 -8 -15 -2 -15 12 0 26 19 19 26 -2 2 -10 -2 -17
-11z"/>
<path d="M4745 7070 c-3 -5 -1 -10 4 -10 6 0 11 5 11 10 0 6 -2 10 -4 10 -3 0
-8 -4 -11 -10z"/>
<path d="M4460 7032 c0 -13 9 -19 35 -20 19 -2 35 2 35 8 0 5 -9 10 -21 10
-11 0 -17 5 -14 10 3 6 -3 10 -14 10 -14 0 -21 -6 -21 -18z"/>
<path d="M2826 6983 c10 -96 -25 -230 -98 -377 l-39 -78 8 -102 8 -101 30 -3
c16 -2 33 -9 37 -15 10 -17 15 -7 26 51 8 45 7 52 -7 52 -14 0 -14 2 -1 10 10
6 11 10 3 10 -7 0 -13 5 -13 10 0 6 7 10 16 10 14 0 14 3 4 15 -11 13 -10 14
6 9 15 -6 17 -4 7 6 -10 11 -10 17 2 30 8 9 15 30 17 48 1 18 6 32 11 32 5 0
5 9 2 20 -4 11 -2 20 4 20 6 0 11 6 11 14 0 8 5 16 11 18 13 4 21 50 20 112 0
22 4 45 10 53 9 10 8 13 -2 13 -8 0 0 9 16 20 20 13 24 20 14 20 -9 0 -19 7
-23 15 -4 13 -2 14 14 5 11 -6 20 -7 20 -2 0 14 146 32 330 39 237 9 181 23
-95 24 -147 1 -212 4 -217 12 -5 8 -8 8 -8 1 0 -6 -13 -9 -32 -6 -29 4 -30 6
-13 14 14 6 8 7 -20 4 -22 -2 -34 -2 -27 1 6 2 12 11 12 19 0 9 -4 13 -9 9 -5
-3 -16 2 -25 11 -14 14 -15 10 -10 -43z"/>
<path d="M4546 7015 c2 -5 15 -11 28 -11 19 -1 22 1 14 10 -14 14 -47 16 -42
1z"/>
<path d="M4705 6981 c-3 -5 -1 -12 5 -16 5 -3 10 1 10 9 0 18 -6 21 -15 7z"/>
<path d="M4550 6956 c-44 -7 -65 -16 -65 -25 0 -8 -17 -19 -39 -25 l-39 -11
37 -17 c39 -19 73 -13 109 19 13 13 20 14 29 5 9 -9 7 -12 -10 -12 -12 0 -22
-4 -22 -10 0 -5 9 -10 20 -10 11 0 20 -4 20 -10 0 -21 29 -9 50 20 12 17 30
30 41 30 27 0 24 -15 -8 -39 l-28 -20 40 0 c43 0 117 26 80 29 -19 1 -19 2 -3
14 16 12 13 14 -25 26 -23 8 -46 12 -52 10 -5 -1 -32 -4 -60 -5 -44 -3 -47 -2
-30 11 10 8 27 14 38 14 10 0 15 5 12 10 -7 11 -8 11 -95 -4z"/>
<path d="M3469 6947 c18 -18 132 -32 212 -28 l74 5 -95 7 c-52 5 -119 12 -148
17 -38 7 -50 6 -43 -1z"/>
<path d="M5184 6935 c3 -8 1 -15 -4 -15 -6 0 -10 -9 -10 -19 0 -10 -7 -22 -16
-25 -8 -3 -12 -10 -9 -16 3 -5 1 -10 -5 -10 -7 0 -10 -7 -6 -15 5 -15 -25 -55
-43 -55 -5 0 -11 -8 -13 -18 -5 -19 -128 -130 -128 -115 0 5 3 13 7 17 4 4 8
19 10 34 l2 27 -10 -25 c-6 -14 -15 -33 -20 -42 -6 -12 -5 -18 2 -18 6 0 9 -6
6 -12 -2 -7 -9 -12 -15 -11 -5 1 -9 -5 -8 -15 1 -11 -5 -16 -16 -14 -15 2 -16
-1 -7 -28 10 -28 29 -42 29 -20 0 6 18 17 40 26 22 9 38 19 36 23 -2 3 11 17
28 31 23 19 27 20 16 5 -14 -19 -14 -19 3 -6 10 8 16 20 13 28 -3 7 1 13 9 13
8 0 15 6 15 14 0 8 7 16 15 20 8 3 15 12 15 19 0 8 11 23 25 33 14 10 25 24
25 31 0 6 4 13 10 15 11 3 28 112 22 141 -2 9 -8 17 -14 17 -5 0 -8 -7 -4 -15z"/>
<path d="M4804 6888 c-7 -12 5 -28 20 -28 8 0 22 8 33 18 10 9 13 13 6 8 -8
-5 -13 -5 -13 1 0 11 -40 12 -46 1z"/>
<path d="M4208 6873 c7 -3 16 -2 19 1 4 3 -2 6 -13 5 -11 0 -14 -3 -6 -6z"/>
<path d="M4203 6777 c-9 -14 13 -29 38 -25 13 1 25 10 27 19 2 12 -5 16 -28
16 -17 0 -33 -4 -37 -10z"/>
<path d="M5003 6773 c-16 -6 -17 -33 -1 -33 6 0 8 3 5 7 -4 3 -2 12 4 20 12
14 11 14 -8 6z"/>
<path d="M4255 6720 c-3 -5 -1 -10 4 -10 6 0 11 5 11 10 0 6 -2 10 -4 10 -3 0
-8 -4 -11 -10z"/>
<path d="M5882 6163 c-10 -4 -10 -9 3 -23 11 -12 14 -26 10 -39 -6 -21 -25
-29 -25 -11 0 5 -6 7 -14 4 -8 -3 -16 -23 -18 -43 -2 -28 0 -37 9 -34 7 3 13
0 13 -6 0 -6 -4 -11 -9 -11 -15 0 -22 -30 -11 -48 5 -10 10 -12 10 -4 0 7 13
12 33 12 45 0 81 39 72 79 -3 16 -2 32 4 35 12 8 3 77 -12 91 -7 7 -8 6 -3 -3
4 -7 1 -15 -7 -18 -9 -3 -12 -14 -9 -32 3 -15 1 -24 -3 -20 -5 5 -10 20 -11
34 -3 32 -14 43 -32 37z"/>
<path d="M5970 6165 c0 -6 5 -16 12 -23 16 -16 21 -73 5 -69 -8 1 -12 -11 -12
-34 -1 -20 -6 -43 -13 -52 -10 -12 -9 -16 4 -21 10 -4 20 -2 24 4 4 7 13 3 24
-9 10 -11 24 -17 31 -15 7 3 18 -7 26 -25 8 -17 24 -33 37 -36 28 -7 43 2 18
11 -20 8 -21 30 -1 38 9 3 15 0 15 -8 0 -9 9 -12 26 -8 14 2 22 7 17 11 -16
10 -23 40 -12 47 6 3 16 1 22 -5 8 -8 8 -11 -1 -11 -9 0 -7 -8 5 -24 10 -13
24 -21 31 -18 8 3 18 -1 22 -8 6 -10 12 -11 22 -3 10 8 18 8 30 -1 10 -7 15
-15 12 -18 -12 -13 53 6 69 20 16 14 22 10 18 -12 -1 -5 6 -3 15 5 16 13 16
12 6 -7 -11 -21 -7 -34 10 -34 5 0 6 5 3 10 -11 18 11 11 29 -9 11 -12 30 -19
48 -19 19 1 36 -6 44 -16 7 -10 17 -15 22 -12 5 3 15 -1 22 -9 21 -26 50 -19
50 13 0 15 4 22 8 16 9 -14 45 -14 54 0 5 8 16 7 38 -1 23 -9 30 -9 29 0 -3
26 2 32 26 33 22 2 23 0 13 -20 -6 -11 -7 -18 -3 -13 5 4 17 0 27 -10 10 -9
21 -13 26 -8 4 4 1 10 -5 12 -7 3 -13 13 -13 23 0 10 -4 22 -10 25 -17 10 -12
48 5 41 8 -3 15 0 15 6 0 7 6 4 13 -7 13 -16 14 -15 9 13 -3 23 0 31 15 34 14
3 11 7 -14 18 -18 8 -33 22 -34 30 0 8 -5 -1 -12 -20 -7 -19 -15 -34 -20 -34
-56 10 -66 15 -61 29 4 9 1 15 -8 15 -21 0 -37 -20 -31 -39 4 -14 3 -14 -6 -1
-6 9 -7 18 -1 24 6 6 3 14 -8 22 -25 19 -52 17 -52 -3 0 -15 -2 -16 -10 -3 -5
8 -10 11 -10 7 0 -5 -12 1 -27 13 -25 19 -29 20 -39 5 -10 -14 -12 -13 -17 7
-5 16 -9 20 -17 12 -12 -12 -63 -6 -55 6 4 7 -16 16 -54 25 -8 2 -23 -1 -34
-7 -11 -5 -22 -6 -26 -2 -3 5 -14 15 -23 22 -15 12 -20 10 -36 -17 -18 -29
-20 -30 -33 -14 -9 11 -10 14 -1 9 13 -8 16 3 6 29 -5 13 -9 14 -15 4 -6 -10
-11 -6 -18 13 -6 15 -19 27 -34 30 -18 4 -24 1 -20 -8 3 -8 -2 -17 -11 -20 -9
-3 -16 -13 -16 -21 0 -8 -5 -11 -11 -8 -6 4 -8 13 -5 21 3 8 1 14 -4 14 -5 0
-11 9 -15 20 -7 21 -40 24 -61 5 -8 -7 -6 -15 9 -27 11 -10 21 -29 23 -44 2
-26 2 -26 -16 -6 -11 11 -29 18 -43 17 -13 -2 -24 2 -24 9 1 35 -6 79 -10 63
-5 -18 -5 -18 -19 0 -7 10 -14 13 -14 8z m411 -152 c-9 -16 -10 -15 -11 8 0
14 3 29 8 33 12 12 14 -22 3 -41z m-291 -5 c0 -4 -4 -8 -10 -8 -5 0 -10 7 -10
15 0 8 -5 15 -11 15 -5 0 -7 5 -3 12 5 7 11 5 21 -7 7 -11 13 -22 13 -27z
m180 -12 c0 -3 -4 -8 -10 -11 -5 -3 -10 -1 -10 4 0 6 5 11 10 11 6 0 10 -2 10
-4z m284 -11 c-4 -8 -15 -15 -26 -15 -10 0 -16 5 -13 10 4 6 11 8 16 5 5 -4 9
-1 9 4 0 6 4 11 10 11 5 0 7 -7 4 -15z m-447 -25 c1 -11 -4 -20 -10 -20 -7 0
-12 11 -12 24 0 28 20 24 22 -4z m567 -58 c3 -5 -1 -9 -9 -9 -8 0 -12 4 -9 9
3 4 7 8 9 8 2 0 6 -4 9 -8z m-74 -52 c0 -5 -4 -10 -10 -10 -5 0 -10 5 -10 10
0 6 5 10 10 10 6 0 10 -4 10 -10z m120 6 c0 -2 -7 -6 -15 -10 -8 -3 -15 -1
-15 4 0 6 7 10 15 10 8 0 15 -2 15 -4z"/>
<path d="M5764 6149 c-3 -6 -2 -14 3 -18 6 -3 14 -22 18 -41 7 -33 20 -49 38
-50 13 0 8 16 -13 38 -11 12 -20 35 -20 52 0 30 -13 40 -26 19z"/>
<path d="M4936 6131 c-4 -5 3 -7 14 -4 23 6 26 13 6 13 -8 0 -17 -4 -20 -9z"/>
<path d="M4972 6099 c5 -14 48 -32 48 -20 0 4 -12 13 -26 20 -20 9 -25 9 -22
0z"/>
<path d="M5437 6095 c-5 -11 0 -15 19 -15 16 0 24 5 22 13 -7 18 -35 20 -41 2z"/>
<path d="M5545 6096 c-11 -9 -14 -16 -7 -16 17 0 15 -40 -2 -40 -22 0 -35 -23
-25 -47 9 -25 39 -22 39 4 0 8 -4 11 -10 8 -5 -3 -10 -1 -10 6 0 8 10 9 32 5
31 -6 31 -6 13 14 -10 11 -15 21 -12 21 4 1 11 2 16 3 17 2 24 16 8 16 -8 0
-17 9 -19 21 -3 18 -5 19 -23 5z"/>
<path d="M4265 6079 c-11 -17 1 -21 15 -4 8 9 8 15 2 15 -6 0 -14 -5 -17 -11z"/>
<path d="M5520 6060 c0 -5 5 -10 10 -10 6 0 10 5 10 10 0 6 -4 10 -10 10 -5 0
-10 -4 -10 -10z"/>
<path d="M5475 6040 c-3 -5 1 -10 9 -10 9 0 16 5 16 10 0 6 -4 10 -9 10 -6 0
-13 -4 -16 -10z"/>
<path d="M8546 6036 c3 -9 11 -16 16 -16 13 0 5 23 -10 28 -7 2 -10 -2 -6 -12z"/>
<path d="M5760 6024 c0 -16 9 -18 28 -5 10 6 9 10 -7 14 -14 3 -21 0 -21 -9z"/>
<path d="M5599 6008 c-7 -13 -19 -28 -28 -35 -14 -10 -13 -11 6 -6 24 6 36 18
46 46 9 25 -10 21 -24 -5z"/>
<path d="M5272 5994 c-7 -8 -8 -14 -3 -14 10 0 25 19 20 25 -2 1 -10 -3 -17
-11z"/>
<path d="M6780 6000 c0 -5 4 -10 9 -10 6 0 13 5 16 10 3 6 -1 10 -9 10 -9 0
-16 -4 -16 -10z"/>
<path d="M8499 5988 c-9 -18 -8 -24 6 -34 16 -12 15 -15 -11 -39 -28 -26 -28
-26 -36 -6 -4 12 -14 21 -23 21 -8 0 -15 5 -15 10 0 6 -9 1 -20 -10 -25 -25
-42 -26 -33 -2 6 16 5 16 -14 0 -24 -22 -43 -23 -43 -3 0 8 -9 15 -20 15 -17
0 -19 -4 -14 -26 5 -20 3 -25 -7 -22 -8 3 -13 11 -11 17 3 14 -15 15 -23 1 -3
-5 -1 -10 4 -10 6 0 11 -8 10 -17 0 -11 -3 -13 -6 -5 -7 19 -23 14 -16 -5 5
-15 3 -14 -10 2 -8 11 -13 23 -11 27 8 13 -11 9 -25 -4 -10 -11 -10 -8 0 15
15 32 6 45 -18 26 -9 -8 -14 -9 -11 -4 4 6 -13 10 -43 10 -27 0 -49 -3 -49 -6
0 -9 27 -19 53 -19 19 -1 20 -2 6 -10 -10 -6 -29 -6 -49 0 -18 5 -37 7 -41 4
-16 -9 -10 -22 13 -28 17 -4 20 -8 12 -16 -9 -9 -20 -4 -43 19 -17 17 -31 35
-31 41 0 5 -2 10 -5 10 -13 0 -85 -36 -85 -42 0 -13 -32 -9 -44 5 -6 7 -10 10
-9 8 2 -2 -3 -11 -10 -19 -10 -13 -9 -15 6 -9 11 4 17 2 17 -8 0 -9 -10 -15
-25 -15 -14 0 -25 -4 -25 -9 0 -6 -9 -9 -19 -8 -11 0 -17 5 -14 10 3 4 7 6 10
3 11 -11 34 25 30 46 l-4 23 -10 -24 -10 -25 -17 26 c-21 31 -71 44 -100 25
-12 -8 -32 -13 -46 -11 -14 1 -31 3 -39 3 -9 1 -11 9 -7 26 5 18 2 25 -9 25
-9 0 -15 -9 -15 -22 -1 -22 -1 -22 -14 -5 -13 17 -15 17 -30 -5 -9 -12 -16
-29 -16 -38 -1 -12 -3 -12 -11 3 -5 9 -17 17 -24 17 -8 0 -15 5 -15 11 0 5 -4
8 -9 5 -5 -4 -12 0 -14 6 -4 10 -6 10 -6 0 -1 -7 -6 -10 -13 -6 -8 5 -9 2 -4
-12 4 -10 8 -21 8 -24 2 -20 -4 -30 -17 -30 -18 0 -20 16 -2 23 7 3 5 6 -5 6
-10 1 -18 -3 -18 -9 0 -18 -29 -10 -35 10 -7 22 -16 24 -62 11 -20 -6 -35 -6
-39 0 -3 5 -9 7 -14 4 -5 -3 -14 0 -22 7 -16 16 -113 24 -103 9 4 -7 -5 -11
-23 -11 -17 0 -32 -6 -36 -15 -3 -8 -16 -15 -28 -16 -18 -1 -17 -3 9 -10 18
-5 35 -18 38 -29 4 -13 15 -20 30 -20 13 0 25 -4 27 -10 2 -6 18 -6 42 0 22 5
45 6 50 2 6 -4 13 -7 16 -8 6 -1 35 -12 67 -25 18 -6 25 -4 33 11 10 19 41 23
56 7 4 -4 18 -7 31 -7 12 0 23 -6 23 -12 0 -9 3 -9 9 1 8 13 15 12 49 -3 22
-10 45 -15 51 -12 5 4 14 -1 19 -10 7 -12 11 -13 17 -5 5 9 11 9 23 -1 12 -10
14 -10 8 0 -5 8 1 12 21 11 25 0 26 -1 8 -10 -15 -7 -10 -8 18 -4 21 4 45 9
53 12 8 3 14 0 14 -7 0 -6 4 -9 9 -6 5 3 20 -4 35 -15 17 -14 24 -16 20 -6 -6
17 15 34 25 20 3 -5 21 -15 40 -23 27 -11 36 -11 39 -2 12 36 54 47 73 19 4
-5 9 3 13 17 6 25 26 37 26 16 0 -16 93 -7 107 10 9 11 15 12 23 4 8 -8 7 -15
-5 -28 -25 -24 -5 -19 22 6 31 29 50 31 57 4 6 -21 6 -21 27 4 12 14 27 24 34
22 7 -1 18 5 25 13 7 8 20 15 29 15 13 -1 12 -3 -4 -12 -21 -12 -35 -28 -35
-41 0 -5 16 7 35 27 34 35 53 47 39 24 -5 -8 -2 -9 9 -5 9 3 19 2 22 -4 4 -5
11 -7 16 -3 5 3 8 0 7 -7 -3 -12 6 -13 62 -10 11 1 19 4 18 9 -4 15 14 92 22
92 4 0 15 -11 23 -24 15 -22 14 -24 -9 -34 -28 -13 -31 -27 -8 -36 23 -9 27
-8 20 9 -3 8 -1 15 3 15 5 0 11 -4 13 -10 2 -6 8 -6 18 0 12 8 13 11 1 19 -10
6 -10 10 -1 16 7 4 16 1 21 -6 7 -11 9 -9 9 6 0 17 3 15 20 -10 19 -28 20 -29
20 -7 0 30 18 64 31 57 5 -4 9 -2 9 3 0 5 -18 12 -39 16 -40 6 -76 40 -64 59
3 6 1 7 -4 4 -6 -4 -13 2 -16 13 -7 26 -33 25 -48 -2z m-103 -145 c-3 -3 -13
-2 -23 2 -17 8 -17 8 0 12 9 3 18 10 18 16 1 7 3 4 6 -6 3 -10 2 -21 -1 -24z
m-146 -8 c-7 -8 -17 -12 -22 -9 -6 4 -5 10 3 15 22 14 33 10 19 -6z"/>
<path d="M8650 5996 c0 -7 9 -16 19 -19 17 -4 18 -2 8 14 -14 22 -27 25 -27 5z"/>
<path d="M3740 5996 c0 -2 7 -7 16 -10 8 -3 12 -2 9 4 -6 10 -25 14 -25 6z"/>
<path d="M5692 5988 c-16 -16 -15 -38 2 -38 20 0 29 17 19 35 -7 12 -12 12
-21 3z"/>
<path d="M5768 5993 c6 -2 12 -9 12 -14 0 -6 -4 -7 -10 -4 -6 3 -7 -1 -4 -9 8
-21 24 -10 24 15 0 12 -7 19 -17 18 -11 0 -13 -3 -5 -6z"/>
<path d="M8420 5989 c0 -5 5 -7 10 -4 6 3 10 8 10 11 0 2 -4 4 -10 4 -5 0 -10
-5 -10 -11z"/>
<path d="M5463 5975 c-3 -9 -3 -18 -1 -21 3 -3 8 4 11 16 6 23 -1 27 -10 5z"/>
<path d="M7796 5956 c21 -15 30 -14 19 3 -3 6 -14 11 -23 11 -13 0 -13 -2 4
-14z"/>
<path d="M8080 5966 c0 -2 7 -6 15 -10 8 -3 15 -1 15 4 0 6 -7 10 -15 10 -8 0
-15 -2 -15 -4z"/>
<path d="M7630 5952 c0 -12 19 -26 26 -19 2 2 -2 10 -11 17 -9 8 -15 8 -15 2z"/>
<path d="M5500 5942 c-34 -5 -47 -19 -32 -34 9 -9 12 -9 12 0 0 7 9 12 21 12
13 0 18 -4 13 -12 -5 -10 -4 -10 5 -2 20 19 9 39 -19 36z"/>
<path d="M6910 5935 c-8 -9 -8 -15 -2 -15 12 0 26 19 19 26 -2 2 -10 -2 -17
-11z"/>
<path d="M7900 5935 c0 -8 4 -15 10 -15 5 0 7 7 4 15 -4 8 -8 15 -10 15 -2 0
-4 -7 -4 -15z"/>
<path d="M8657 5944 c-13 -13 5 -25 20 -12 13 10 14 8 11 -12 -2 -20 2 -25 18
-26 12 -1 25 -4 31 -7 5 -3 10 4 10 16 2 16 0 18 -6 8 -5 -8 -14 -10 -21 -6
-9 6 -9 10 1 16 12 8 11 11 -1 19 -17 11 -53 13 -63 4z"/>
<path d="M6907 5898 c7 -8 9 -18 5 -22 -4 -4 2 -14 12 -22 23 -16 13 -19 -15
-3 -11 5 -17 15 -13 21 4 6 1 9 -6 6 -25 -8 -21 -25 9 -38 40 -16 65 -10 69
18 5 34 -6 58 -20 44 -8 -8 -17 -8 -32 0 -18 10 -19 9 -9 -4z"/>
<path d="M8680 5873 c8 -3 18 -11 22 -17 5 -7 8 -4 8 7 0 11 -7 17 -22 16 -16
0 -18 -2 -8 -6z"/>
<path d="M5470 5859 c0 -5 5 -7 10 -4 6 3 10 8 10 11 0 2 -4 4 -10 4 -5 0 -10
-5 -10 -11z"/>
<path d="M8885 5842 c6 -4 10 -13 11 -19 2 -29 5 -33 24 -33 11 0 28 -9 38
-21 35 -42 48 -54 70 -67 12 -7 22 -8 22 -3 0 5 -8 12 -17 15 -15 6 -15 8 -3
16 13 8 12 12 -5 24 -11 9 -25 16 -31 16 -18 0 -47 38 -41 54 3 8 -1 17 -9 20
-22 9 -71 7 -59 -2z"/>
<path d="M9155 5819 c-4 -13 -2 -25 5 -29 7 -4 9 -16 5 -29 -5 -16 -1 -23 17
-30 13 -6 19 -10 15 -10 -5 -1 -1 -8 8 -17 8 -9 22 -13 30 -10 9 3 12 0 9 -9
-4 -10 3 -13 25 -13 18 1 42 -5 56 -12 19 -10 24 -20 22 -51 -1 -22 -5 -39 -9
-39 -4 0 -8 -7 -8 -16 0 -8 -7 -23 -16 -31 -10 -10 -13 -25 -10 -39 4 -16 0
-30 -15 -45 l-21 -21 7 21 c5 16 3 20 -9 15 -9 -3 -16 -16 -16 -27 0 -20 -1
-20 -17 -4 -15 15 -18 15 -34 1 -10 -9 -26 -14 -36 -11 -15 3 -12 6 11 16 16
6 26 14 23 18 -4 3 -18 -2 -31 -11 -14 -9 -33 -16 -43 -16 -13 0 -15 -2 -5 -8
7 -5 10 -16 6 -25 -7 -19 -20 -22 -26 -8 -1 5 -16 13 -32 17 -22 5 -27 4 -21
-6 6 -9 0 -10 -24 -5 -26 5 -31 4 -31 -12 0 -16 -2 -16 -18 4 -12 17 -21 20
-32 13 -13 -9 -13 -11 0 -20 12 -7 8 -10 -15 -10 -17 0 -35 -3 -41 -7 -5 -5
-1 0 10 10 19 17 18 18 -21 11 -29 -4 -44 -2 -56 10 -8 9 -22 16 -30 16 -9 0
-17 6 -20 13 -3 9 -7 9 -20 -2 -16 -13 -16 -15 0 -27 17 -12 16 -13 -5 -14
-12 0 -33 6 -45 14 -12 8 -33 12 -47 11 -14 -2 -31 -4 -39 -4 -11 -1 -11 -5 2
-19 23 -25 21 -32 -8 -32 -14 0 -25 -4 -25 -9 0 -5 -15 -9 -33 -8 l-34 1 26
24 c14 13 27 19 29 13 2 -6 11 -11 20 -11 13 0 13 2 -3 14 -19 14 -55 11 -55
-5 0 -5 -8 -9 -19 -9 -13 0 -18 -7 -17 -22 1 -19 -3 -22 -26 -20 -20 2 -28 -1
-28 -11 0 -9 -6 -18 -12 -20 -7 -3 -1 -6 14 -6 14 -1 29 5 31 12 3 7 6 5 6 -5
1 -14 -7 -18 -39 -18 -22 0 -50 6 -61 13 -17 10 -23 10 -26 0 -3 -7 -11 -13
-19 -13 -9 0 -12 -5 -8 -12 4 -7 3 -8 -4 -4 -7 4 -18 4 -24 0 -9 -6 -5 -10 12
-15 23 -6 23 -7 6 -14 -13 -6 -23 -3 -31 8 -17 24 -61 22 -68 -2 -3 -13 1 -21
12 -24 11 -2 6 -6 -13 -12 -23 -6 -32 -4 -43 10 -12 17 -13 17 -13 2 0 -21
-19 -22 -48 -1 -21 14 -26 14 -54 1 l-30 -14 23 -22 c21 -20 22 -21 3 -22 -28
-2 -57 -7 -79 -14 -13 -4 -28 1 -41 13 -15 14 -25 17 -37 10 -24 -13 -21 -31
4 -25 15 4 19 1 17 -11 -2 -9 -11 -16 -21 -14 -9 1 -25 -6 -37 -18 -17 -17
-23 -18 -40 -8 -11 7 -20 18 -20 25 0 17 17 17 23 1 4 -10 8 -9 16 2 6 8 11
18 11 23 0 12 -36 8 -66 -8 -21 -11 -30 -11 -36 -3 -4 7 -23 13 -43 14 -20 0
-31 -2 -24 -6 6 -4 9 -12 6 -18 -4 -5 2 -17 13 -27 11 -10 20 -24 20 -31 0 -7
8 -10 20 -7 11 3 27 2 36 -1 15 -6 15 -8 0 -31 -17 -25 -16 -25 3 -13 11 7 22
19 23 27 2 12 6 11 21 -3 10 -10 21 -16 24 -12 3 3 12 1 19 -5 9 -7 19 -3 39
16 21 22 28 25 41 14 12 -10 12 -14 2 -20 -17 -11 -5 -11 25 0 18 7 24 6 24
-5 0 -8 -6 -13 -12 -10 -9 3 -10 -1 -1 -19 l11 -23 12 29 c13 31 48 40 71 17
7 -7 12 -9 12 -4 0 4 7 0 16 -8 8 -9 20 -16 25 -16 6 0 3 7 -5 16 -18 17 -21
28 -7 19 5 -3 12 -1 16 4 3 6 13 7 22 4 12 -5 14 -3 8 7 -6 9 -4 11 5 5 10 -6
10 -11 -3 -20 -15 -11 -15 -14 2 -30 11 -9 25 -14 30 -10 6 3 11 -2 11 -11 0
-14 3 -15 12 -6 10 10 10 17 0 32 -6 10 -8 22 -3 25 5 3 11 -1 13 -7 7 -20
179 -18 196 2 12 13 13 12 9 -7 -3 -13 -1 -23 4 -23 5 0 9 11 9 24 0 19 5 24
25 22 26 -1 33 -12 13 -18 -9 -3 -9 -6 0 -12 7 -4 12 -2 12 4 0 6 10 8 26 4
16 -4 25 -3 21 2 -3 6 4 11 16 11 13 1 17 -1 10 -5 -9 -6 -7 -11 7 -20 12 -7
21 -8 25 -2 3 6 1 10 -4 10 -6 0 -11 5 -11 10 0 7 6 7 20 0 15 -8 20 -8 20 2
0 9 3 9 10 -2 8 -12 10 -10 11 10 l1 25 7 -25 c5 -17 13 -24 25 -22 11 2 15
-1 11 -7 -3 -6 -14 -11 -23 -12 -9 0 -12 -3 -5 -5 6 -3 25 2 42 10 34 18 65
21 56 6 -3 -5 1 -10 9 -10 9 0 16 4 16 8 0 12 92 11 107 0 14 -11 77 28 68 42
-3 5 -1 11 5 15 5 3 10 1 10 -5 0 -7 8 -9 19 -5 14 4 23 0 30 -14 11 -19 51
-19 51 0 0 5 9 9 19 9 11 0 23 5 26 10 8 12 71 40 92 40 7 0 43 14 78 30 63
29 95 39 65 20 -13 -8 -13 -10 2 -10 23 0 76 47 127 114 l42 54 -29 49 c-17
26 -33 59 -37 72 -4 14 -16 38 -26 55 -11 17 -19 45 -19 61 0 59 -36 164 -66
191 -26 25 -27 27 -10 40 19 13 16 44 -4 44 -6 0 -8 5 -4 11 5 9 -1 10 -20 5
-19 -5 -26 -3 -26 9 0 8 -2 15 -4 15 -2 0 -13 3 -23 7 -17 6 -17 5 1 -15 11
-12 17 -25 14 -28 -9 -9 -78 7 -72 17 3 5 -2 6 -10 3 -11 -4 -16 0 -16 10 0
23 -17 20 -25 -5z m160 -67 c-7 -8 -35 7 -35 18 0 6 7 6 20 -2 10 -7 17 -14
15 -16z m28 -241 c-3 -13 -10 -18 -20 -14 -14 5 -13 8 3 20 23 17 23 17 17 -6z
m-513 -151 c13 -8 13 -10 -2 -10 -9 0 -23 -3 -32 -6 -9 -3 -16 -1 -16 6 0 6 5
8 10 5 6 -3 10 -1 10 4 0 13 10 14 30 1z m-160 -20 c0 -5 -4 -10 -10 -10 -5 0
-10 5 -10 10 0 6 5 10 10 10 6 0 10 -4 10 -10z m50 -15 c0 -9 -6 -12 -16 -8
-13 5 -13 7 -2 14 17 11 18 11 18 -6z m-207 -59 c3 -8 -2 -16 -12 -19 -14 -3
-17 0 -14 14 6 22 19 25 26 5z m-416 -118 c-3 -8 -6 -5 -6 6 -1 11 2 17 5 13
3 -3 4 -12 1 -19z m103 12 c0 -5 -7 -10 -15 -10 -8 0 -15 5 -15 10 0 6 7 10
15 10 8 0 15 -4 15 -10z m130 -5 c-7 -8 -16 -15 -21 -15 -5 0 -9 7 -9 15 0 9
9 15 21 15 18 0 19 -2 9 -15z m-60 -35 c0 -5 -2 -10 -4 -10 -3 0 -8 5 -11 10
-3 6 -1 10 4 10 6 0 11 -4 11 -10z m-535 -10 c3 -5 -1 -10 -10 -10 -9 0 -13 5
-10 10 3 6 8 10 10 10 2 0 7 -4 10 -10z m297 -20 c-2 -17 -13 -35 -23 -41 -24
-12 -24 -2 -1 24 12 15 14 21 5 24 -20 7 -15 23 5 23 15 0 18 -6 14 -30z m-82
0 c0 -5 -4 -10 -10 -10 -5 0 -10 5 -10 10 0 6 5 10 10 10 6 0 10 -4 10 -10z
m675 -60 c3 -5 1 -10 -4 -10 -6 0 -11 5 -11 10 0 6 2 10 4 10 3 0 8 -4 11 -10z
m-371 -15 c3 -8 1 -15 -3 -15 -5 0 -11 6 -14 13 -3 9 -9 9 -26 -1 -18 -10 -21
-10 -21 3 0 20 56 20 64 0z m810 6 c3 -5 0 -11 -7 -14 -8 -3 -14 1 -14 9 0 16
13 19 21 5z m-754 -16 c0 -8 -4 -15 -10 -15 -5 0 -7 7 -4 15 4 8 8 15 10 15 2
0 4 -7 4 -15z"/>
<path d="M6080 5806 c0 -8 5 -18 10 -21 6 -3 10 1 10 9 0 8 -4 18 -10 21 -5 3
-10 -1 -10 -9z"/>
<path d="M9122 5810 c2 -8 -6 -16 -19 -18 -15 -2 -20 -8 -16 -19 5 -13 2 -15
-15 -11 -13 4 -19 2 -16 -6 4 -12 14 -14 64 -19 21 -2 25 2 25 26 1 16 -5 36
-12 45 -10 13 -13 14 -11 2z"/>
<path d="M6047 5786 c3 -15 10 -29 15 -32 6 -4 7 2 3 17 -10 35 -23 45 -18 15z"/>
<path d="M4000 5787 c0 -5 6 -7 14 -4 8 3 17 1 20 -6 2 -7 5 -5 5 5 1 11 -6
16 -19 15 -11 -1 -20 -5 -20 -10z"/>
<path d="M5950 5775 c7 -9 15 -13 17 -11 7 7 -7 26 -19 26 -6 0 -6 -6 2 -15z"/>
<path d="M8150 5770 c0 -5 7 -10 15 -10 8 0 15 5 15 10 0 6 -7 10 -15 10 -8 0
-15 -4 -15 -10z"/>
<path d="M3335 5729 c-4 -6 -5 -12 -2 -15 2 -3 7 2 10 11 7 17 1 20 -8 4z"/>
<path d="M5900 5730 c19 -13 30 -13 30 0 0 6 -10 10 -22 10 -19 0 -20 -2 -8
-10z"/>
<path d="M6115 5730 c3 -5 8 -10 11 -10 2 0 4 5 4 10 0 6 -5 10 -11 10 -5 0
-7 -4 -4 -10z"/>
<path d="M9120 5710 c0 -5 5 -10 10 -10 6 0 10 5 10 10 0 6 -4 10 -10 10 -5 0
-10 -4 -10 -10z"/>
<path d="M6345 5660 c-3 -5 1 -10 9 -10 8 0 18 5 21 10 3 6 -1 10 -9 10 -8 0
-18 -4 -21 -10z"/>
<path d="M3286 5605 c-3 -8 -1 -15 4 -15 6 0 10 7 10 15 0 8 -2 15 -4 15 -2 0
-6 -7 -10 -15z"/>
<path d="M4035 5590 c-3 -5 -1 -10 4 -10 6 0 11 5 11 10 0 6 -2 10 -4 10 -3 0
-8 -4 -11 -10z"/>
<path d="M3265 5547 c-8 -20 -15 -40 -15 -46 0 -5 -7 -22 -15 -37 -18 -34 -20
-63 -4 -47 5 5 17 37 25 69 9 32 21 65 26 72 6 7 8 15 5 19 -4 3 -14 -10 -22
-30z"/>
<path d="M6450 5576 c0 -9 30 -14 35 -6 4 6 -3 10 -14 10 -12 0 -21 -2 -21 -4z"/>
<path d="M3985 5549 c-4 -6 0 -18 9 -27 15 -15 16 -15 16 5 0 25 -15 38 -25
22z"/>
<path d="M3798 5513 c6 -2 18 -2 25 0 6 3 1 5 -13 5 -14 0 -19 -2 -12 -5z"/>
<path d="M4424 5419 c15 -12 30 -19 33 -15 4 3 1 6 -5 6 -7 0 -12 7 -12 15 0
9 -9 15 -21 15 -20 0 -20 -1 5 -21z"/>
<path d="M5047 5433 c-3 -5 6 -8 19 -8 13 0 24 3 24 8 0 4 -9 7 -19 7 -11 0
-22 -3 -24 -7z"/>
<path d="M4746 5422 c-3 -5 1 -15 9 -22 16 -14 20 -3 6 19 -5 8 -11 9 -15 3z"/>
<path d="M6875 5411 c-3 -5 -2 -12 3 -15 5 -3 9 1 9 9 0 17 -3 19 -12 6z"/>
<path d="M4901 5384 c0 -11 3 -14 6 -6 3 7 2 16 -1 19 -3 4 -6 -2 -5 -13z"/>
<path d="M5427 5393 c-10 -9 -9 -33 1 -33 4 0 8 9 8 20 0 23 0 22 -9 13z"/>
<path d="M5788 5303 c7 -3 16 -2 19 1 4 3 -2 6 -13 5 -11 0 -14 -3 -6 -6z"/>
<path d="M5715 5290 c-3 -5 -1 -10 4 -10 6 0 11 5 11 10 0 6 -2 10 -4 10 -3 0
-8 -4 -11 -10z"/>
<path d="M5870 5290 c-12 -8 -11 -10 8 -10 12 0 22 5 22 10 0 13 -11 13 -30 0z"/>
<path d="M8380 5290 c0 -5 5 -10 10 -10 6 0 10 5 10 10 0 6 -4 10 -10 10 -5 0
-10 -4 -10 -10z"/>
<path d="M8133 5282 c-9 -6 -7 -11 6 -19 11 -7 23 -8 32 -2 11 7 8 9 -9 9 -13
0 -20 4 -17 10 7 12 4 12 -12 2z"/>
<path d="M7477 5213 c-5 -7 -16 -13 -25 -13 -12 0 -18 -9 -18 -27 -1 -27 0
-28 45 -26 25 2 41 0 34 -3 -9 -4 -5 -13 12 -30 13 -13 29 -32 34 -41 9 -15
12 -16 20 -4 7 12 14 10 36 -8 34 -26 45 -27 45 -1 0 12 -7 20 -17 21 -15 0
-15 2 2 9 17 7 17 9 3 9 -10 1 -18 6 -18 12 0 5 4 8 9 4 5 -3 12 -1 16 5 3 5
-3 10 -15 10 -11 0 -23 7 -27 16 -4 12 -8 13 -14 3 -6 -11 -11 -10 -26 3 -10
9 -32 19 -50 23 -22 4 -33 13 -35 28 -2 15 -5 18 -11 10z"/>
<path d="M7540 5189 c0 -5 5 -7 10 -4 6 3 10 8 10 11 0 2 -4 4 -10 4 -5 0 -10
-5 -10 -11z"/>
<path d="M7357 5179 c7 -7 15 -10 18 -7 3 3 -2 9 -12 12 -14 6 -15 5 -6 -5z"/>
<path d="M7575 5180 c-3 -5 1 -10 9 -10 9 0 16 5 16 10 0 6 -4 10 -9 10 -6 0
-13 -4 -16 -10z"/>
<path d="M7963 5183 c9 -2 23 -2 30 0 6 3 -1 5 -18 5 -16 0 -22 -2 -12 -5z"/>
<path d="M7799 5160 c30 -26 45 -26 29 0 -7 11 -22 20 -33 20 -19 -1 -19 -2 4
-20z"/>
<path d="M5941 5094 c0 -11 3 -14 6 -6 3 7 2 16 -1 19 -3 4 -6 -2 -5 -13z"/>
<path d="M7520 5091 c0 -5 5 -13 10 -16 6 -3 10 -2 10 4 0 5 -4 13 -10 16 -5
3 -10 2 -10 -4z"/>
<path d="M5667 5028 c4 -7 7 -22 7 -33 -1 -16 0 -16 3 -2 3 9 9 15 14 11 5 -3
7 -10 4 -15 -10 -15 12 -10 25 6 10 12 9 15 -4 15 -9 0 -19 7 -22 15 -4 8 -13
15 -21 15 -9 0 -11 -5 -6 -12z"/>
<path d="M5179 5011 c-19 -16 -20 -20 -8 -21 17 0 45 27 37 35 -3 3 -16 -3
-29 -14z"/>
<path d="M8995 5011 c-3 -5 -1 -12 5 -16 5 -3 10 1 10 9 0 18 -6 21 -15 7z"/>
<path d="M4253 4995 c-3 -9 -3 -18 -1 -21 3 -3 8 4 11 16 6 23 -1 27 -10 5z"/>
<path d="M5906 5003 c-3 -3 -1 -14 5 -25 8 -15 13 -17 25 -7 8 6 14 15 14 19
0 9 -37 20 -44 13z"/>
<path d="M5450 4990 c-9 -6 -10 -10 -3 -10 6 0 15 5 18 10 8 12 4 12 -15 0z"/>
<path d="M6993 4972 c0 -21 1 -22 20 -9 30 20 31 32 3 32 -18 0 -23 -5 -23
-23z"/>
<path d="M7653 4962 c-3 -9 -11 -30 -18 -47 -8 -16 -11 -33 -9 -37 9 -14 44
-9 44 6 0 8 14 15 35 18 24 3 35 0 35 -9 0 -7 7 -13 16 -13 8 0 12 -4 9 -10
-3 -5 3 -10 15 -10 11 0 24 8 27 18 4 9 15 23 25 30 15 11 17 17 7 28 -7 8
-17 13 -23 11 -5 -2 -35 3 -66 10 -30 8 -63 16 -73 18 -11 2 -20 -3 -24 -13z"/>
<path d="M8335 4970 c4 -6 11 -8 16 -5 14 9 11 15 -7 15 -8 0 -12 -5 -9 -10z"/>
<path d="M5232 4950 c0 -14 2 -19 5 -12 2 6 2 18 0 25 -3 6 -5 1 -5 -13z"/>
<path d="M5666 4945 c-18 -13 -18 -14 3 -12 11 1 21 7 21 14 0 16 0 16 -24 -2z"/>
<path d="M6820 4950 c0 -5 5 -10 10 -10 6 0 10 5 10 10 0 6 -4 10 -10 10 -5 0
-10 -4 -10 -10z"/>
<path d="M4120 4935 c0 -8 2 -15 4 -15 2 0 6 7 10 15 3 8 1 15 -4 15 -6 0 -10
-7 -10 -15z"/>
<path d="M6715 4940 c3 -5 12 -7 20 -3 21 7 19 13 -6 13 -11 0 -18 -4 -14 -10z"/>
<path d="M7916 4931 c-4 -7 -5 -15 -2 -18 9 -9 19 4 14 18 -4 11 -6 11 -12 0z"/>
<path d="M4010 4920 c-8 -5 -11 -12 -7 -16 4 -4 13 -2 19 4 15 15 7 24 -12 12z"/>
<path d="M7122 4918 c5 -15 28 -23 28 -10 0 5 -7 13 -16 16 -10 4 -14 1 -12
-6z"/>
<path d="M5230 4900 c0 -5 5 -10 10 -10 6 0 10 5 10 10 0 6 -4 10 -10 10 -5 0
-10 -4 -10 -10z"/>
<path d="M7115 4860 c4 -6 11 -8 16 -5 14 9 11 15 -7 15 -8 0 -12 -5 -9 -10z"/>
<path d="M4046 4845 c4 -8 8 -15 10 -15 2 0 4 7 4 15 0 8 -4 15 -10 15 -5 0
-7 -7 -4 -15z"/>
<path d="M6478 4753 c7 -3 16 -2 19 1 4 3 -2 6 -13 5 -11 0 -14 -3 -6 -6z"/>
<path d="M7471 4734 c-1 -6 -17 -27 -37 -48 -28 -28 -40 -35 -60 -30 -13 3
-24 11 -24 17 0 6 -3 7 -6 4 -4 -4 -1 -13 6 -22 11 -13 7 -20 -21 -45 -19 -16
-46 -34 -61 -41 -14 -6 -28 -19 -31 -29 -4 -16 -1 -15 33 4 53 31 161 115 188
148 13 15 21 34 19 41 -3 7 -6 7 -6 1z"/>
<path d="M6916 4663 c-6 -14 -5 -15 5 -6 7 7 10 15 7 18 -3 3 -9 -2 -12 -12z"/>
<path d="M3016 4624 c2 -11 -3 -29 -11 -40 -22 -28 -18 -35 12 -21 21 9 27 9
31 -1 2 -6 11 -12 20 -12 12 -1 11 -4 -7 -14 -17 -10 -20 -15 -11 -21 12 -8
33 11 43 39 3 8 8 7 18 -1 7 -7 17 -13 21 -13 10 0 11 50 1 51 -49 4 -79 11
-81 19 -2 6 -10 10 -17 10 -7 0 -15 6 -18 13 -2 6 -3 3 -1 -9z"/>
<path d="M3380 4636 c0 -2 6 -9 14 -15 11 -9 16 -9 22 0 4 8 3 9 -4 5 -7 -4
-12 -2 -12 3 0 6 -4 11 -10 11 -5 0 -10 -2 -10 -4z"/>
<path d="M6622 4601 c7 -11 16 -17 20 -14 10 5 -10 33 -23 33 -5 0 -4 -9 3
-19z"/>
<path d="M6740 4520 c0 -5 7 -10 16 -10 8 0 12 5 9 10 -3 6 -10 10 -16 10 -5
0 -9 -4 -9 -10z"/>
<path d="M5510 4499 c0 -5 5 -7 10 -4 6 3 10 8 10 11 0 2 -4 4 -10 4 -5 0 -10
-5 -10 -11z"/>
<path d="M6785 4500 c3 -5 14 -10 23 -10 15 0 15 2 2 10 -20 13 -33 13 -25 0z"/>
<path d="M5854 4408 c-4 -6 -1 -14 6 -18 10 -6 9 -9 -1 -13 -8 -3 -4 -6 9 -6
12 -1 22 3 22 8 0 5 8 11 18 13 12 3 8 7 -15 15 -23 8 -35 9 -39 1z"/>
<path d="M5733 4376 c9 -10 17 -23 17 -29 0 -7 5 -4 11 6 12 21 12 22 -21 32
-23 7 -23 7 -7 -9z"/>
<path d="M5817 4346 c-4 -10 0 -14 14 -13 10 1 18 6 16 11 -5 16 -24 18 -30 2z"/>
<path d="M5550 4295 c-7 -9 -10 -18 -6 -22 3 -3 6 -1 6 7 0 10 3 10 14 1 12
-10 13 -8 9 8 -6 25 -7 25 -23 6z"/>
<path d="M4802 4112 c-11 -11 -28 -22 -39 -25 -16 -3 -16 -5 -2 -11 11 -5 26
1 44 19 14 15 24 29 21 32 -2 3 -13 -4 -24 -15z"/>
<path d="M4437 3990 c-9 -11 -17 -22 -17 -25 0 -9 45 -5 60 6 13 8 12 9 -4 7
-10 -2 -21 3 -24 11 -3 8 0 11 6 7 6 -3 13 -2 17 4 12 19 -20 10 -38 -10z"/>
</g>
</svg>
